TexturaLibera-ExLight-Expand.sfdir
StartChar: exclam
Encoding: 33 33 1
Width: 360
Flags: W
HStem: 607 20G<206 237>
VStem: 123 96<429.634 531> 153 54<206 391.025>
LayerCount: 2
Back
SplineSet
160 40 m 25
 200 0 l 1049
150 540 m 1
 150 540 167 516 168 500 c 24
 178 379 180 190 180 190 c 1
 180 190 184 379 192 500 c 24
 193 539 210 600 210 600 c 9
 150 540 l 1
EndSplineSet
Fore
SplineSet
123 524 m 1xc0
 226 627 l 1
 237 616 l 1
 237 616 220 555 219 516 c 0xc0
 211 395 207 206 207 206 c 1
 164 163 l 1
 153 174 l 1xa0
 153 174 151 363 141 484 c 0
 140 500 123 524 123 524 c 1xc0
133 24 m 1
 176 67 l 1
 227 16 l 1
 184 -27 l 1
 133 24 l 1
EndSplineSet
EndChar
StartChar: hyphen
Encoding: 45 45 13
Width: 360
Flags: W
HStem: 173 79
VStem: 93 174
LayerCount: 2
Back
SplineSet
120 200 m 25
 240 225 l 1049
EndSplineSet
Fore
SplineSet
93 184 m 1
 136 227 l 1
 256 252 l 1
 267 241 l 1
 224 198 l 1
 104 173 l 1
 93 184 l 1
EndSplineSet
EndChar
StartChar: three
Encoding: 51 51 19
Width: 480
Flags: W
HStem: -177 54<142.795 236.293> 373 54<196 224>
VStem: 303 54<286 329> 333 54<-124 101>
LayerCount: 2
Back
SplineSet
120 350 m 1
 180 400 l 1
 240 400 l 1
 330 350 l 1
 330 270 l 1
 210 150 l 1049
90 -200 m 25
 67 -220 140 -150 180 -150 c 27
 231 -150 300 -200 300 -200 c 9
 360 -140 l 1
 360 85 l 9
 270 175 l 1049
EndSplineSet
Fore
SplineSet
78 -224 m 2xd0
 74 -227 l 2
 71 -230 70 -230 70 -230 c 1
 59 -219 l 2
 102 -176 l 2
 108 -170 163 -123 196 -123 c 0
 247 -123 316 -173 316 -173 c 2
 316 -173 331 -158 333 -156 c 2
 333 69 l 2
 333 113 277 125 254 148 c 2
 243 159 l 1
 286 202 l 1
 387 101 l 1
 387 -124 l 1
 284 -227 l 1
 284 -227 215 -177 164 -177 c 0
 137 -177 96 -209 78 -224 c 2xd0
93 334 m 1
 136 377 l 1
 196 427 l 1
 256 427 l 1
 346 377 l 1
 357 366 l 1
 357 286 l 1
 194 123 l 1
 183 134 l 1
 303 254 l 1
 303 329 l 1xe0
 224 373 l 1
 164 373 l 1
 104 323 l 1
 93 334 l 1
EndSplineSet
Substitution2: "Subscript forms-1" three.inferior
Substitution2: "Superscript forms-1" three.superior
EndChar
StartChar: four
Encoding: 52 52 20
Width: 480
Flags: W
HStem: -177 21G<314 354> -27 54<360.347 464> -2 54<148.88 303 357 451.187> 348 54<259.698 311> 407 20G<236 294.4 341 357> 407 20G<236 294.4 341 357>
VStem: 93 54<35 184> 303 54<-106 -8 51 363>
LayerCount: 2
Back
SplineSet
310 -110 m 25
 350 -150 l 1049
330 -130 m 1
 330 400 l 1
 330 400 307 375 288 375 c 27
 268 375 240 400 240 400 c 1
 120 200 l 1
 120 0 l 1
 120 0 137 25 240 25 c 3
 403 25 479 0 480 0 c 1025
EndSplineSet
Fore
SplineSet
147 35 m 1xb3
 161 42 192 52 256 52 c 0
 273 52 288 51 303 51 c 1
 303 363 l 1
 295 356 283 348 272 348 c 0
 260 348 246 357 236 364 c 1
 147 216 l 1
 147 35 l 1xb3
357 48 m 2
 359 48 360 48 362 48 c 0
 452 41 495 27 496 27 c 2
 507 16 l 1
 464 -27 l 2xdb
 463 -27 429 -15 357 -8 c 1
 357 -114 l 1
 377 -134 l 1
 334 -177 l 1
 314 -157 l 1
 303 -146 l 1
 283 -126 l 1
 303 -106 l 1
 303 -4 l 2
 302 -4 301 -4 300 -4 c 0
 277 -3 252 -2 224 -2 c 0xb3
 142 -2 115 -17 107 -24 c 2
 104 -27 l 1
 93 -16 l 1
 93 184 l 1
 213 384 l 1
 256 427 l 1
 256 427 284 402 304 402 c 0
 318 402 333 416 341 423 c 2
 346 427 l 1xdb
 357 416 l 1
 357 48 l 2
EndSplineSet
Substitution2: "Subscript forms-1" four.inferior
Substitution2: "Superscript forms-1" four.superior
EndChar
StartChar: semicolon
Encoding: 59 59 27
Width: 360
Flags: W
VStem: 108 119
LayerCount: 2
Back
SplineSet
155 40 m 25
 195 0 l 1
 195 -40 l 25
 135 -100 l 1049
160 340 m 25
 200 300 l 1049
EndSplineSet
Fore
SplineSet
133 324 m 1
 176 367 l 1
 227 316 l 1
 184 273 l 1
 133 324 l 1
128 24 m 1
 171 67 l 1
 222 16 l 1
 222 -24 l 1
 119 -127 l 1
 108 -116 l 1
 168 -56 l 1
 168 -16 l 1
 128 24 l 1
EndSplineSet
EndChar
StartChar: A
Encoding: 65 65 33
Width: 840
Flags: W
HStem: 23 54<110.651 202> 323 54<289.775 362 423 460.798> 548 21G<243 268 513 544> 573 54<287.12 369.397>
VStem: 393 54<380.203 551.022>
AnchorPoint: "blwmark" 480 0 basechar 0
AnchorPoint: "abvmark" 540 700 basechar 0
LayerCount: 2
Back
SplineSet
620 560 m 25
 580 600 l 25
 540 560 l 1049
240 300 m 1
 240 300 276 350 360 350 c 3
 512 350 600 250 601 250 c 1025
270 575 m 1
 270 575 282 600 330 600 c 11
 389 600 420 549 420 500 c 3
 420 263 211 75 211 75 c 1025
60 0 m 17
 60 0 97 50 180 50 c 3
 298 50 330 0 330 0 c 1025
600 580 m 1
 660 60 l 1
 720 0 l 9
 780 60 l 1049
EndSplineSet
Fore
SplineSet
44 -27 m 1
 33 -16 l 1
 33 -16 35 -12 39 -8 c 2
 82 34 l 2
 96 48 133 77 196 77 c 0
 198 77 200 77 202 77 c 2
 211 87 l 2
 250 128 321 214 362 323 c 1
 356 323 350 323 344 323 c 0
 292 323 258 304 240 289 c 2
 224 273 l 1
 213 284 l 1
 213 284 215 287 220 292 c 2
 263 335 l 2
 277 349 313 377 376 377 c 0
 377 377 378 377 379 377 c 0
 388 411 393 447 393 484 c 0
 393 509 385 535 369 554 c 0
 355 565 336 573 314 573 c 0
 291 573 277 568 268 562 c 2
 254 548 l 1
 243 559 l 1
 243 559 245 563 249 567 c 2
 291 609 l 2
 298 616 315 627 346 627 c 0
 372 627 391 617 406 602 c 2
 418 591 l 2
 437 572 447 544 447 516 c 0
 447 466 438 418 423 374 c 1
 517 361 580 310 605 288 c 1
 573 564 l 1
 564 573 l 1
 524 533 l 1
 513 544 l 1
 596 627 l 1
 616 607 l 1
 621 601 l 1
 647 576 l 1
 631 560 l 1
 687 76 l 2
 690 51 721 42 736 27 c 1
 796 87 l 1
 807 76 l 1
 704 -27 l 1
 633 44 l 1
 610 247 l 1
 585 223 l 2
 584 223 518 298 401 318 c 1
 353 211 280 132 251 103 c 2
 224 76 l 1
 295 71 328 46 340 34 c 2
 351 22 l 2
 355 18 357 16 357 16 c 2
 314 -27 l 1
 303 -16 l 2
 303 -16 303 -15 302 -14 c 0
 284 0 243 23 164 23 c 0
 111 23 77 3 59 -12 c 2
 44 -27 l 1
EndSplineSet
EndChar
StartChar: D
Encoding: 68 68 36
Width: 840
Flags: W
HStem: -27 21G<33 59 416 604> 23 54<111.529 232 248 376.186> 523 21G<33 63> 548 54<191.352 232> 573 54<106.919 207.259> 573 29<263.744 285>
VStem: 232 16<76 549> 363 54<166 524> 693 54<137 453>
AnchorPoint: "blwmark" 420 0 basechar 0
AnchorPoint: "abvmark" 480 700 basechar 0
LayerCount: 2
Back
SplineSet
60 550 m 1
 60 550 101 600 149 600 c 3
 192 600 214 575 240 575 c 3
 274 575 300 600 301 600 c 1025
240 550 m 1
 240 75 l 1025
390 150 m 1
 390 540 l 1
 450 600 l 1
 720 475 l 1
 720 121.200195312 l 1
 600 0 l 17
 600 0 419 50 180 50 c 3
 97 50 60 0 60 0 c 1033
EndSplineSet
Fore
SplineSet
374 123 m 1xe780
 363 134 l 1
 363 524 l 1
 466 627 l 1xeb80
 736 502 l 1
 747 491 l 1
 747 137 l 1
 627 16 l 1
 584 -27 l 1
 584 -27 403 23 164 23 c 0
 110 23 76 2 59 -12 c 2
 44 -27 l 1
 33 -16 l 1
 33 -16 35 -12 39 -8 c 2
 82 34 l 2
 96 48 133 77 196 77 c 0
 208 77 220 76 232 76 c 1
 232 549 l 2
 230 549 227 548 224 548 c 0xf380
 198 548 176 573 133 573 c 0
 105 573 80 556 63 541 c 2
 44 523 l 1
 33 534 l 1
 33 534 37 539 42 544 c 2
 84 586 l 2
 99 601 131 627 165 627 c 0xeb80
 208 627 230 602 256 602 c 0xe780
 290 602 316 627 317 627 c 2xeb80
 328 616 l 1
 285 573 l 2
 284 573 270 559 248 552 c 1
 248 76 l 1
 455 70 607 29 615 27 c 1
 693 106 l 1
 693 453 l 1
 434 573 l 1
 417 556 l 1
 417 166 l 1
 374 123 l 1xe780
EndSplineSet
EndChar
StartChar: E
Encoding: 69 69 37
Width: 900
Flags: W
HStem: -27 54<360.027 564.139> 273 54<639 703.481> 323 54<563.404 621> 465 21G<333 352> 507 20G<506 537> 523 54<630.584 706.574> 573 54<494.105 581.058>
VStem: 123 54<198.262 382.447> 352 16<70 472 511 580> 483 54<116 316.804 336 484>
AnchorPoint: "blwmark" 480 0 basechar 0
AnchorPoint: "abvmark" 540 700 basechar 0
LayerCount: 2
Back
SplineSet
510 300 m 25
 510 300 566 350 600 350 c 27
 642 350 618 300 660 300 c 3
 709 300 750 350 751 350 c 1049
360 550 m 1
 360 100 l 1025
510 500 m 1
 510 100 l 1025
360 600 m 1
 360 600 150 480 150 300 c 3
 150 134 264 0 480 0 c 3
 623 0 781 150 782 150 c 1025
360 492 m 1
 360 492 474 600 546 600 c 3
 623 600 590 550 660 550 c 3
 718 550 750 600 751 600 c 1025
EndSplineSet
Fore
SplineSet
387 616 m 1x93c0
 344 573 l 2
 344 573 306 551 262 512 c 1
 217 461 177 394 177 316 c 0
 177 237 203 164 253 111 c 1
 308 59 390 27 496 27 c 0
 639 27 797 177 798 177 c 2
 809 166 l 1
 766 123 l 2
 765 123 607 -27 464 -27 c 0
 355 -27 272 8 216 63 c 2
 205 74 l 2
 151 128 123 202 123 284 c 0
 123 374 176 450 228 502 c 2
 271 544 l 2
 323 596 376 627 376 627 c 1
 387 616 l 1x93c0
526 527 m 1xb9c0
 537 516 l 1
 537 336 l 1
 555 350 591 377 616 377 c 0xb9c0
 626 377 632 374 636 370 c 2
 647 358 l 2
 654 351 656 339 661 330 c 0
 664 328 670 327 676 327 c 0xd1c0
 710 327 740 351 755 365 c 2
 766 376 l 1
 767 377 l 2xb1c0
 778 366 l 1
 775 362 l 2
 774 361 773 360 772 359 c 2
 771 359 l 2
 729 316 l 2
 715 302 682 273 644 273 c 0xd1c0
 634 273 629 276 624 280 c 0
 613 292 l 2
 606 300 604 310 599 320 c 0
 596 321 590 323 584 323 c 0
 570 323 553 315 537 305 c 1
 537 116 l 1
 494 73 l 1
 483 84 l 1
 483 284 l 1
 483 484 l 1
 526 527 l 1xb9c0
352 580 m 1
 368 580 l 1
 368 511 l 1
 376 519 l 1
 376 519 490 627 562 627 c 0x93c0
 592 627 605 619 614 610 c 2
 625 599 l 2
 629 595 632 590 635 587 c 0
 643 581 655 577 676 577 c 0x95c0
 703 577 723 588 738 599 c 2
 766 627 l 2
 767 627 l 1x93c0
 778 616 l 2
 776 613 772 608 765 600 c 2
 764 600 l 2
 722 558 l 2
 707 543 680 523 644 523 c 0x95c0
 619 523 607 530 599 538 c 2
 587 550 l 2
 583 554 580 557 577 561 c 0
 568 568 554 573 530 573 c 0x93c0
 478 573 405 517 368 486 c 1
 368 70 l 1
 352 70 l 1
 352 472 l 1
 347 468 344 465 344 465 c 2
 333 476 l 1
 352 495 l 1
 352 580 l 1
EndSplineSet
EndChar
StartChar: F
Encoding: 70 70 38
Width: 840
Flags: W
HStem: -27 21G<33 59 303 334> 23 54<110.53 275.6> 273 54<572.593 643.481> 323 54<470.326 532.407> 498 54<540.314 648.642> 523 21G<33 63> 548 54<191.352 232> 573 54<106.919 207.259> 573 29<263.744 285>
VStem: 232 16<75 549> 363 54<76 301.319 308 524>
AnchorPoint: "blwmark" 420 0 basechar 0
AnchorPoint: "abvmark" 480 700 basechar 0
LayerCount: 2
Back
SplineSet
60 0 m 17
 60 0 97 50 180 50 c 3
 298 50 330 0 330 0 c 9
 390 60 l 1
 390 540 l 1
 450 600 l 1
 450 600 525 525 600 525 c 27
 667 525 720 600 721 600 c 1025
60 550 m 1
 60 550 101 600 149 600 c 3
 192 600 214 575 240 575 c 3
 274 575 300 600 301 600 c 1025
240 550 m 1
 240 75 l 1025
420 300 m 1
 420 300 471 350 505 350 c 3
 547 350 558 300 600 300 c 3
 649 300 690 350 691 350 c 1049
EndSplineSet
Fore
SplineSet
44 523 m 1xc560
 33 534 l 1
 33 534 37 539 42 544 c 2
 84 586 l 2
 99 601 131 627 165 627 c 0xc560
 208 627 230 602 256 602 c 0xc0e0
 290 602 316 627 317 627 c 2xc160
 328 616 l 1
 285 573 l 2xc0e0
 284 573 270 559 248 552 c 1
 248 73 l 1
 302 65 329 45 340 34 c 2
 346 27 l 1
 363 44 l 1
 363 524 l 1
 466 627 l 1
 466 627 541 552 616 552 c 0
 646 552 671 567 692 583 c 0
 693 584 694 584 694 584 c 2
 736 627 l 2
 737 627 l 2xc960
 748 616 l 1
 745 613 738 603 726 591 c 2
 725 590 l 2
 683 548 l 2xc260
 661 526 625 498 584 498 c 0
 509 498 434 573 434 573 c 1
 417 556 l 1
 417 308 l 1
 436 327 l 1xe8e0
 436 327 487 377 521 377 c 0xd060
 563 377 574 327 616 327 c 0xe060
 650 327 680 351 695 365 c 2
 706 376 l 2
 707 377 l 2xd060
 718 366 l 1
 715 362 l 2
 714 361 713 360 712 359 c 2
 711 359 l 2
 669 316 l 2
 655 302 622 273 584 273 c 0xe060
 542 273 531 323 489 323 c 0
 465 323 434 299 417 284 c 1
 417 76 l 1
 314 -27 l 1
 303 -16 l 2
 303 -16 303 -15 302 -14 c 0
 284 0 243 23 164 23 c 0
 111 23 77 3 59 -12 c 2
 44 -27 l 1
 33 -16 l 1
 33 -16 35 -12 39 -8 c 2
 82 34 l 2
 96 48 133 77 196 77 c 0
 209 77 221 76 232 75 c 1
 232 549 l 2
 230 549 227 548 224 548 c 0xd260
 198 548 176 573 133 573 c 0
 105 573 80 556 63 541 c 2
 44 523 l 1xc560
EndSplineSet
EndChar
StartChar: G
Encoding: 71 71 39
Width: 900
Flags: W
HStem: -27 54<360.027 599.476> 337 54<637.567 725.074> 465 21G<333 352> 507 20G<506 537> 523 54<630.584 706.574> 573 54<494.105 581.058>
VStem: 123 54<198.607 382.76> 352 16<70 472 511 580> 483 54<116 484> 753 54<140.041 309.815>
AnchorPoint: "blwmark" 480 0 basechar 0
AnchorPoint: "abvmark" 540 700 basechar 0
LayerCount: 2
Back
SplineSet
570 300 m 17
 570 300 626 364 690 364 c 3
 757 364 780 306 780 200 c 3
 780 75 623 0 480 0 c 3
 264 0 150 134 150 300 c 3
 150 480 360 600 360 600 c 1025
360 550 m 1
 360 100 l 1025
510 500 m 1
 510 100 l 1025
360 492 m 1
 360 492 474 600 546 600 c 3
 623 600 590 550 660 550 c 3
 718 550 750 600 751 600 c 1025
EndSplineSet
Fore
SplineSet
526 527 m 1xf3c0
 537 516 l 1
 537 116 l 1
 494 73 l 1
 483 84 l 1
 483 484 l 1
 526 527 l 1xf3c0
352 580 m 1
 368 580 l 1
 368 511 l 1
 376 519 l 1
 376 519 490 627 562 627 c 0xe7c0
 592 627 605 619 614 610 c 2
 625 599 l 2
 629 595 632 590 635 587 c 0
 643 581 655 577 676 577 c 0xebc0
 703 577 723 588 738 599 c 2
 766 627 l 2
 767 627 l 2xe7c0
 778 616 l 2
 776 613 772 608 765 600 c 2
 764 600 l 2
 722 558 l 2
 707 543 680 523 644 523 c 0xebc0
 619 523 607 530 599 538 c 2
 587 550 l 2
 583 554 580 557 577 561 c 0
 568 568 554 573 530 573 c 0xe7c0
 478 573 405 517 368 486 c 1
 368 70 l 1
 352 70 l 1
 352 472 l 1
 347 468 344 465 344 465 c 2
 333 476 l 1
 352 495 l 1
 352 580 l 1
554 273 m 1
 543 284 l 1
 543 284 545 287 549 291 c 2
 592 334 l 2
 608 350 655 391 706 391 c 0
 729 391 746 384 760 370 c 2
 772 359 l 2
 797 333 807 285 807 216 c 0
 807 173 788 135 758 105 c 2
 716 63 l 2
 658 5 558 -27 464 -27 c 0
 355 -27 272 8 216 63 c 2
 205 74 l 1
 205 75 l 2
 151 129 123 202 123 284 c 0
 123 374 176 450 228 502 c 2
 271 544 l 2
 323 596 376 627 376 627 c 1
 387 616 l 1
 344 573 l 2
 344 573 307 552 262 512 c 1
 218 462 177 395 177 316 c 0
 177 237 203 165 253 111 c 1
 308 59 390 27 496 27 c 0
 578 27 664 51 723 96 c 1
 741 121 753 151 753 184 c 0
 753 248 745 295 723 322 c 0
 711 332 694 337 674 337 c 0
 629 337 588 306 568 287 c 2
 554 273 l 1
EndSplineSet
EndChar
StartChar: M
Encoding: 77 77 45
Width: 1080
Flags: W
HStem: -27 21G<33 59 303 334 624 664 894 934> 23 54<111.09 277.656> 523 21G<33 63> 548 54<191.352 232> 573 54<106.919 207.259> 573 29<263.744 285>
VStem: 232 16<75 549> 363 54<76 524> 573 54<76 466> 843 54<76 466>
AnchorPoint: "blwmark" 540 0 basechar 0
AnchorPoint: "abvmark" 600 700 basechar 0
LayerCount: 2
Back
SplineSet
990 60 m 25
 930 0 l 17
 870 60 l 1
 870 450 l 1
 720 600 l 1
 600 480 l 1025
60 550 m 1
 60 550 101 600 149 600 c 3
 192 600 214 575 240 575 c 3
 274 575 300 600 301 600 c 1025
240 550 m 1
 240 75 l 1025
720 60 m 25
 660 0 l 17
 600 60 l 1
 600 450 l 1
 450 600 l 1
 390 540 l 1
 390 60 l 1
 330 0 l 1
 330 0 298 50 180 50 c 3
 97 50 60 0 60 0 c 1033
EndSplineSet
Fore
SplineSet
736 87 m 1xe7c0
 747 76 l 1
 644 -27 l 1
 573 44 l 1
 573 434 l 2
 573 512 475 532 434 573 c 1xe7c0
 417 556 l 1
 417 76 l 1
 314 -27 l 1
 303 -16 l 1
 303 -16 303 -15 302 -14 c 0
 284 1 243 23 164 23 c 0
 110 23 76 2 59 -12 c 2
 44 -27 l 1
 33 -16 l 1
 33 -16 35 -12 39 -8 c 2
 82 34 l 2
 96 48 133 77 196 77 c 0
 209 77 221 76 232 75 c 1
 232 549 l 2
 230 549 227 548 224 548 c 0xf3c0
 198 548 176 573 133 573 c 0
 105 573 80 556 63 541 c 2
 44 523 l 1
 33 534 l 1
 33 534 37 539 42 544 c 2
 84 586 l 2
 99 601 131 627 165 627 c 0xebc0
 208 627 230 602 256 602 c 0xe7c0
 290 602 316 627 317 627 c 2xebc0
 328 616 l 1
 285 573 l 2xe7c0
 284 573 270 559 248 552 c 1
 248 73 l 1
 302 65 329 45 340 34 c 2
 346 27 l 1
 363 44 l 1
 363 524 l 1
 466 627 l 1
 601 492 l 1
 736 627 l 1xebc0
 897 466 l 1
 897 76 l 1
 946 27 l 1
 1006 87 l 1
 1017 76 l 1
 914 -27 l 1
 843 44 l 1
 843 434 l 2
 843 512 745 532 704 573 c 1
 612 481 l 1
 627 466 l 1
 627 76 l 1
 676 27 l 1
 736 87 l 1xe7c0
EndSplineSet
EndChar
StartChar: T
Encoding: 84 84 52
Width: 840
Flags: W
HStem: -27 54<306.721 504.139> 460 20G<291.312 322 322 338> 473 54<460.791 492 499 576.497> 573 54<241.289 352.552>
VStem: 123 54<151.095 306.309> 322 16<70 461 470 480> 453 54<116 434>
AnchorPoint: "blwmark" 420 0 basechar 0
AnchorPoint: "abvmark" 480 700 basechar 0
LayerCount: 2
Back
SplineSet
330 450 m 1
 330 100 l 1049
480 450 m 1
 480 100 l 1049
300 450 m 1
 300 450 150 356 150 250 c 3
 150 84 257 0 420 0 c 3
 563 0 721 150 722 150 c 1049
120 500 m 17
 120 500 216 600 300 600 c 27
 396 600 418 500 514 500 c 19
 606 500 690 600 691 600 c 1033
EndSplineSet
Fore
SplineSet
104 473 m 1xbe
 93 484 l 1
 93 484 94 486 95 487 c 2
 138 529 l 2
 153 544 239 627 316 627 c 0
 412 627 434 527 530 527 c 0
 591 527 648 571 680 600 c 2
 706 627 l 2
 707 627 l 2
 718 616 l 1
 716 614 l 2
 714 612 710 608 704 602 c 2
 704 601 l 2
 661 559 l 2
 633 531 569 473 499 473 c 1
 507 466 l 1
 507 116 l 1
 464 73 l 1
 453 84 l 1
 453 434 l 1
 492 473 l 1
 401 477 378 573 284 573 c 0
 211 573 129 498 109 478 c 2
 104 473 l 1xbe
322 480 m 1xde
 338 480 l 1
 338 70 l 1
 322 70 l 1
 322 461 l 1
 284 423 l 1
 284 423 258 407 229 381 c 1
 200 347 177 308 177 266 c 0
 177 192 198 133 236 92 c 1
 283 48 353 27 436 27 c 0
 579 27 737 177 738 177 c 2
 749 166 l 1
 706 123 l 2
 705 123 547 -27 404 -27 c 0
 317 -27 246 -3 199 44 c 2
 188 56 l 2
 146 98 123 156 123 234 c 0
 123 286 159 335 195 371 c 2
 237 413 l 2
 276 452 316 477 316 477 c 1
 322 470 l 1
 322 480 l 1xde
EndSplineSet
EndChar
StartChar: X
Encoding: 88 88 56
Width: 720
Flags: W
HStem: 273 54<433.379 537.122> 298 54<182.878 298.359> 513 21G<63 94 594.37 634> 607 20G<146 177 566 606>
AnchorPoint: "abvmark" 360 700 basechar 0
LayerCount: 2
Back
SplineSet
120 275 m 25
 120 275 187 325 240 325 c 27
 335 325 385 300 480 300 c 27
 533 300 600 350 600 350 c 1049
660 60 m 25
 600 0 l 17
 150 600 l 9
 90 540 l 1049
60 60 m 25
 120 0 l 17
 570 600 l 9
 630 540 l 1049
EndSplineSet
Fore
SplineSet
33 44 m 1xb0
 76 87 l 1
 129 33 l 1
 322 289 l 1
 293 294 262 298 224 298 c 0
 171 298 104 248 104 248 c 1
 93 259 l 1
 136 302 l 1
 136 302 203 352 256 352 c 0x70
 272 352 285 351 299 350 c 1
 133 572 l 1
 74 513 l 1
 63 524 l 1
 166 627 l 1
 177 616 l 1
 372 356 l 1
 543 584 l 1
 586 627 l 1
 657 556 l 1
 614 513 l 1
 561 567 l 1
 388 337 l 1
 420 332 454 327 496 327 c 0
 549 327 616 377 616 377 c 1
 627 366 l 1
 584 323 l 1
 584 323 517 273 464 273 c 0
 453 273 443 273 433 274 c 1
 617 28 l 1
 676 87 l 1
 687 76 l 1
 584 -27 l 1
 573 -16 l 1
 348 284 l 1
 147 16 l 1
 104 -27 l 1
 33 44 l 1xb0
EndSplineSet
EndChar
StartChar: Z
Encoding: 90 90 58
Width: 840
Flags: W
HStem: 23 54<126.355 453.922> 273 54<419.734 597.122> 298 54<242.878 366.023> 523 54<322.037 632.013> 607 20G<116 304 720 747>
AnchorPoint: "blwmark" 360 0 basechar 0
AnchorPoint: "abvmark" 420 700 basechar 0
LayerCount: 2
Back
SplineSet
180 275 m 25
 180 275 247 325 300 325 c 27
 395 325 445 300 540 300 c 27
 593 300 660 350 660 350 c 1049
750 120 m 1
 630 0 l 1
 630 0 538 50 240 50 c 3
 152 50 60 0 60 0 c 1
 720 600 l 1
 720 600 617 550 540 550 c 3
 288 550 120 600 120 600 c 1025
EndSplineSet
Fore
SplineSet
766 147 m 1xd8
 777 136 l 1
 614 -27 l 1
 614 -27 522 23 224 23 c 0
 159 23 91 -5 61 -19 c 0
 51 -24 44 -27 44 -27 c 1
 33 -16 l 1
 76 27 l 1
 367 292 l 1
 342 296 315 298 284 298 c 0
 231 298 164 248 164 248 c 1
 153 259 l 1
 196 302 l 1
 196 302 263 352 316 352 c 0xb8
 358 352 390 347 422 342 c 1
 653 552 l 1
 616 538 566 523 524 523 c 0
 272 523 104 573 104 573 c 1
 93 584 l 1
 136 627 l 1
 136 627 304 577 556 577 c 0
 615 577 688 606 720 620 c 0
 730 624 736 627 736 627 c 1
 747 616 l 1
 704 573 l 1
 445 338 l 1
 478 332 513 327 556 327 c 0
 609 327 676 377 676 377 c 1
 687 366 l 1
 644 323 l 1
 644 323 577 273 524 273 c 0
 471 273 432 281 391 288 c 1
 130 51 l 1
 164 64 211 77 256 77 c 0
 554 77 646 27 646 27 c 1
 766 147 l 1xd8
EndSplineSet
EndChar
StartChar: backslash
Encoding: 92 92 60
Width: 600
Flags: W
HStem: -177 21G<513 544>
LayerCount: 2
Back
SplineSet
540 -150 m 25
 60 700 l 1049
EndSplineSet
Fore
SplineSet
524 -177 m 1
 513 -166 l 1
 33 684 l 1
 76 727 l 1
 87 716 l 1
 567 -134 l 1
 524 -177 l 1
EndSplineSet
EndChar
StartChar: l
Encoding: 108 108 76
Width: 240
Flags: W
HStem: 622 20G<96 135.231>
VStem: 93 54<44 571>
AnchorPoint: "blwmark" 120 0 basechar 0
AnchorPoint: "abvmark" 120 700 basechar 0
LayerCount: 2
Back
SplineSet
100 40 m 25
 140 0 l 25
 180 40 l 1049
100 615 m 25
 140 575 l 1049
120 595 m 9
 120 20 l 1049
EndSplineSet
Fore
SplineSet
73 599 m 1
 116 642 l 1
 141 616 l 1
 147 611 l 1
 167 591 l 1
 147 571 l 1
 147 36 l 1
 156 27 l 1
 196 67 l 1
 207 56 l 1
 124 -27 l 1
 104 -7 l 1
 93 4 l 1
 73 24 l 1
 93 44 l 1
 93 579 l 1
 73 599 l 1
EndSplineSet
EndChar
StartChar: o
Encoding: 111 111 79
Width: 480
Flags: W
HStem: 407 20G<236 276> 407 20G<236 276>
VStem: 93 54<104 264> 333 54<136 296>
AnchorPoint: "blwmark" 240 0 basechar 0
AnchorPoint: "abvmark" 240 500 basechar 0
LayerCount: 2
Back
SplineSet
240 400 m 25
 120 280 l 25
 120 120 l 25
 240 0 l 25
 360 120 l 25
 360 280 l 25
 240 400 l 25
EndSplineSet
Fore
SplineSet
224 373 m 1x30
 147 296 l 1
 147 136 l 2
 147 75 224 59 256 27 c 1
 333 104 l 1
 333 264 l 2
 333 325 256 341 224 373 c 1x30
93 264 m 1
 256 427 l 1xb0
 387 296 l 1
 387 136 l 1
 224 -27 l 1
 93 104 l 1
 93 264 l 1
EndSplineSet
EndChar
StartChar: bar
Encoding: 124 124 92
Width: 300
Flags: W
HStem: -177 21G<123 154>
VStem: 123 54<-134 684>
LayerCount: 2
Back
SplineSet
150 -150 m 25
 150 700 l 1049
EndSplineSet
Fore
SplineSet
134 -177 m 1
 123 -166 l 1
 123 684 l 1
 166 727 l 1
 177 716 l 1
 177 -134 l 1
 134 -177 l 1
EndSplineSet
EndChar
StartChar: exclamdown
Encoding: 161 161 200
Width: 360
Flags: W
HStem: 407 20G<156 196> 407 20G<156 196>
VStem: 141 96<-131 -29.6336> 153 54<8.97541 194>
LayerCount: 2
Back
SplineSet
200 360 m 25
 160 400 l 1049
210 -140 m 1
 210 -140 193 -116 192 -100 c 24
 182 21 180 210 180 210 c 1
 180 210 176 21 168 -100 c 24
 167 -139 150 -200 150 -200 c 9
 210 -140 l 1
EndSplineSet
Fore
SplineSet
237 -124 m 1x20
 134 -227 l 1
 123 -216 l 1
 123 -216 140 -155 141 -116 c 0x20
 149 5 153 194 153 194 c 1
 196 237 l 1
 207 226 l 1x10
 207 226 209 37 219 -84 c 0
 220 -100 237 -124 237 -124 c 1x20
227 376 m 1
 184 333 l 1
 133 384 l 1
 176 427 l 1x80
 227 376 l 1
EndSplineSet
EndChar
StartChar: currency
Encoding: 164 164 207
Width: 600
Flags: W
HStem: 448 21G<153 184> 507 20G<266 320.688> 607 20G<56 87 536 567>
VStem: 93 54<240 334> 453 54<266 360>
LayerCount: 2
Back
SplineSet
540 0 m 25
 420 125 l 1049
60 0 m 25
 180 125 l 1049
540 600 m 25
 420 475 l 1049
60 600 m 25
 180 475 l 1049
270 500 m 25
 120 350 l 25
 120 220 l 25
 330 100 l 25
 480 250 l 25
 480 380 l 25
 270 500 l 25
EndSplineSet
Fore
SplineSet
254 473 m 1
 147 366 l 1
 147 240 l 1
 346 127 l 2
 346 127 444 225 453 234 c 1
 453 360 l 1
 254 473 l 1
93 334 m 1
 286 527 l 1
 397 463 l 1
 513 584 l 1
 556 627 l 1
 567 616 l 1
 447 491 l 1
 411 455 l 1
 496 407 l 1
 507 396 l 1
 507 266 l 1
 314 73 l 1
 203 137 l 1
 87 16 l 1
 44 -27 l 1
 33 -16 l 1
 153 109 l 1
 189 145 l 1
 104 193 l 1
 93 204 l 1
 93 334 l 1
76 627 m 1
 87 616 l 1
 207 491 l 1
 164 448 l 1
 153 459 l 1
 33 584 l 1
 76 627 l 1
524 -27 m 1
 513 -16 l 1
 393 109 l 1
 436 152 l 1
 447 141 l 1
 567 16 l 1
 524 -27 l 1
EndSplineSet
EndChar
StartChar: logicalnot
Encoding: 172 172 225
Width: 720
Flags: W
HStem: 373 54<136 573>
VStem: 573 54<216 373>
LayerCount: 2
Back
SplineSet
120 400 m 25
 600 400 l 25
 600 200 l 1049
EndSplineSet
Fore
SplineSet
93 384 m 1
 136 427 l 1
 616 427 l 1
 627 416 l 1
 627 216 l 1
 584 173 l 1
 573 184 l 1
 573 373 l 1
 104 373 l 1
 93 384 l 1
EndSplineSet
EndChar
StartChar: paragraph
Encoding: 182 182 226
Width: 720
Flags: W
HStem: -177 54<321.529 412 428 536.035> 73 54<207.74 324.325> 548 54<371.352 412> 573 54<246.348 387.259> 573 29<443.744 465>
VStem: 93 54<207.727 457.135> 412 16<-123 549> 543 54<-59 524>
LayerCount: 2
Back
SplineSet
360 150 m 17
 360 150 348.13838788 100 270 100 c 3
 168 100 120 177.79076131 120 350 c 3
 120 469 170.810673948 600 329 600 c 3
 372 600 394 575 420 575 c 3
 454 575 480 600 481 600 c 1025
420 550 m 1
 420 -125 l 1025
630 600 m 1
 570 540 l 1
 570 -75 l 1025
660 -200 m 1
 660 -200 508 -150 390 -150 c 3
 307 -150 270 -200 270 -200 c 1025
EndSplineSet
Fore
SplineSet
687 -184 m 1xcf
 644 -227 l 1
 644 -227 492 -177 374 -177 c 0
 320 -177 286 -198 269 -212 c 2
 254 -227 l 1
 243 -216 l 1
 243 -216 245 -212 249 -208 c 2
 292 -166 l 2
 306 -152 343 -123 406 -123 c 0
 408 -123 410 -123 412 -123 c 2
 412 549 l 2
 410 549 407 548 404 548 c 0xe7
 378 548 356 573 313 573 c 0
 264 573 225 560 195 539 c 1
 161 491 147 427 147 366 c 0
 147 265 163 196 198 156 c 0
 220 136 250 127 286 127 c 0
 306 127 322 130 334 135 c 1
 376 177 l 1
 387 166 l 1
 387 166 384 153 372 141 c 2
 329 99 l 2
 316 86 294 73 254 73 c 0
 215 73 185 85 161 108 c 2
 150 119 l 2
 149 119 l 2
 111 157 93 228 93 334 c 0
 93 406 112 482 161 531 c 2
 203 574 l 1
 236 607 282 627 345 627 c 0xd7
 388 627 410 602 436 602 c 0xcf
 470 602 496 627 497 627 c 2xd7
 508 616 l 1
 465 573 l 2
 464 573 450 559 428 552 c 1
 428 -124 l 1
 542 -129 676 -173 676 -173 c 2
 687 -184 l 1xcf
646 627 m 1xd7
 657 616 l 1
 597 556 l 1
 597 -59 l 1
 554 -102 l 1
 543 -91 l 1
 543 524 l 1
 646 627 l 1xd7
EndSplineSet
EndChar
StartChar: thorn
Encoding: 254 254 179
Width: 480
Flags: W
HStem: -177 21G<93 124> 407 20G<236 276> 407 20G<236 276>
VStem: 93 54<-134 16 82 296 318 581> 333 54<136 296>
AnchorPoint: "abvmark" 240 700 basechar 0
LayerCount: 2
Back
SplineSet
60 0 m 1
 60 0 115 60 150 60 c 0
 185 60 240 0 240 0 c 9
 360 120 l 1
 360 280 l 25
 240 400 l 1
 120 280 l 1049
100 625 m 25
 140 585 l 1049
120 605 m 1
 120 -150 l 1025
EndSplineSet
Fore
SplineSet
73 609 m 1xd8
 116 652 l 1
 136 632 l 1
 147 621 l 1
 167 601 l 1
 147 581 l 1
 147 318 l 1
 256 427 l 1
 387 296 l 1
 387 136 l 1
 224 -27 l 1
 213 -16 l 1
 213 -16 212 -15 211 -14 c 0
 196 1 170 24 147 31 c 1
 147 -134 l 1
 104 -177 l 1
 93 -166 l 1
 93 16 l 1
 81 7 69 -3 60 -11 c 2
 44 -27 l 1
 33 -16 l 1
 33 -16 36 -13 41 -8 c 2
 83 35 l 2
 86 38 89 40 93 44 c 2
 93 264 l 1
 93 589 l 1
 73 609 l 1xd8
147 296 m 1
 147 82 l 1
 154 85 160 87 166 87 c 0
 193 87 232 50 248 34 c 2
 256 27 l 1
 333 104 l 1
 333 264 l 2
 333 325 256 341 224 373 c 1
 147 296 l 1
EndSplineSet
EndChar
StartChar: dcroat
Encoding: 273 273 319
Width: 480
Flags: W
HStem: 407 20G<236 275.726> 427 45G<236 275.726 446 477> 523 54<154.093 295.263> 623 21G<149 173>
VStem: 93 54<119 151 173 264 581.642 622.999> 333 54<136 264 359 391 413 489.293>
AnchorPoint: "blwmark" 240 0 basechar 0
AnchorPoint: "abvmark" 300 700 basechar 0
LayerCount: 2
Back
SplineSet
450 465 m 1
 60 75 l 1025
360 280 m 1
 240 400 l 25
 120 280 l 1
 120 120 l 25
 240 0 l 25
 360 120 l 1
 360 450 l 10
 360 510 293 550 240 550 c 0
 187 550 120 549 120 600 c 27
 120 633 180 670 169 650 c 1049
EndSplineSet
Fore
SplineSet
466 492 m 1xbc
 477 481 l 1
 387 391 l 1
 387 136 l 1
 224 -27 l 1
 97 101 l 1
 44 48 l 1
 33 59 l 1
 93 119 l 1
 93 264 l 1
 256 427 l 1
 328 354 l 1
 333 359 l 1
 333 434 l 2
 333 455 324 475 311 490 c 0
 287 511 253 523 224 523 c 0
 184 523 137 523 116 544 c 2
 104 555 l 2
 97 562 93 571 93 584 c 0
 93 597 103 611 113 621 c 2
 155 664 l 2
 156 664 l 2
 169 677 182 685 185 682 c 2
 197 671 l 2
 198 670 197 669 196 666 c 2
 153 623 l 1
 149 627 l 2
 148 623 147 620 147 616 c 0
 147 607 149 598 153 592 c 0
 176 576 220 577 256 577 c 0
 288 577 324 562 348 538 c 2
 360 527 l 2
 376 511 387 490 387 466 c 2
 387 413 l 1
 466 492 l 1xbc
286 312 m 1
 224 373 l 1
 147 296 l 1
 147 173 l 1
 286 312 l 1
297 301 m 1
 147 151 l 1
 147 136 l 2
 147 75 224 59 256 27 c 1
 333 104 l 1
 333 264 l 1
 297 301 l 1
EndSplineSet
EndChar
StartChar: eng
Encoding: 331 331 600
Width: 480
Flags: W
HStem: -227 54<227.127 306.708> -177 54<107.789 183.026>
VStem: 93 54<44 260 282 350> 333 54<-134 288>
AnchorPoint: "abvmark" 240 500 basechar 0
LayerCount: 2
Back
SplineSet
120 244 m 25
 270 394 l 1
 360 304 l 1
 360 -150 l 1
 360 -150 304 -200 270 -200 c 0
 232 -200 175 -150 150 -150 c 16
 104 -150 60 -200 60 -200 c 1033
100 40 m 25
 140 0 l 1049
140 354 m 25
 100 394 l 1049
120 374 m 9
 120 20 l 1025
EndSplineSet
Fore
SplineSet
147 390 m 1xb0
 167 370 l 1
 147 350 l 1
 147 282 l 1
 286 421 l 1
 387 320 l 1
 387 -134 l 1
 344 -177 l 1x70
 344 -177 288 -227 254 -227 c 0xb0
 216 -227 159 -177 134 -177 c 0x70
 102 -177 71 -201 56 -215 c 2
 44 -227 l 1xb0
 33 -216 l 2
 33 -216 35 -213 38 -210 c 2
 39 -210 l 2
 81 -167 l 2
 94 -154 130 -123 166 -123 c 0x70
 191 -123 248 -173 286 -173 c 0
 300 -173 316 -165 333 -155 c 1
 333 288 l 1
 254 367 l 1
 147 260 l 1
 147 36 l 1
 167 16 l 1
 124 -27 l 1
 104 -7 l 1
 93 4 l 1
 73 24 l 1
 93 44 l 1
 93 228 l 1
 93 358 l 1
 73 378 l 1
 116 421 l 1
 147 390 l 1xb0
EndSplineSet
EndChar
StartChar: florin
Encoding: 402 402 260
Width: 480
Flags: W
HStem: -227 54<20.5755 99.1279> -177 54<-102.126 -20.5755> 373 54<136 218 276 404> 563 54<444.928 514.635>
LayerCount: 2
Back
SplineSet
-150 -200 m 17
 -150 -200 -106 -150 -60 -150 c 8
 -9 -150 9 -200 60 -200 c 24
 100 -200 150 -150 150 -150 c 1
 270 530 l 1
 390 650 l 17
 390 650 438 590 480 590 c 24
 522 590 570 650 571 650 c 1033
120 400 m 25
 420 400 l 1049
EndSplineSet
Fore
SplineSet
93 384 m 1xb0
 136 427 l 1
 228 427 l 1
 243 514 l 1
 406 677 l 1
 417 666 l 1
 417 666 421 660 428 653 c 0
 446 636 472 617 496 617 c 0
 517 617 540 632 557 647 c 2
 586 677 l 2
 587 677 l 2
 598 666 l 1
 596 664 l 2
 594 662 589 656 582 649 c 2
 540 607 l 2
 522 589 492 563 464 563 c 0
 437 563 409 587 391 605 c 2
 379 617 l 2
 377 619 376 620 374 622 c 2
 297 546 l 1
 276 427 l 1
 436 427 l 1
 447 416 l 1
 404 373 l 1
 266 373 l 1
 177 -134 l 1
 134 -177 l 1x70
 134 -177 84 -227 44 -227 c 0xb0
 -7 -227 -25 -177 -76 -177 c 0x70
 -108 -177 -138 -200 -154 -215 c 2
 -166 -227 l 1xb0
 -177 -216 l 1
 -177 -216 -174 -213 -171 -210 c 2
 -129 -167 l 2
 -116 -154 -80 -123 -44 -123 c 0x70
 7 -123 25 -173 76 -173 c 0
 92 -173 110 -164 125 -155 c 1
 218 373 l 1
 104 373 l 1
 93 384 l 1xb0
EndSplineSet
EndChar
StartChar: hv
Encoding: 405 405 514
Width: 720
Flags: W
HStem: 407 20G<266 306> 407 20G<266 306 621.5 633>
VStem: 93 54<44 266 288 581> 333 54<136 326> 513 54<430.872 504.805> 573 54<136 354>
AnchorPoint: "blwmark" 360 0 basechar 0
AnchorPoint: "abvmark" 360 700 basechar 0
LayerCount: 2
Back
SplineSet
606 550 m 17
 604 550 540 521 540 472 c 16
 540 423 600 370 600 370 c 9
 600 120 l 1
 480 0 l 25
 360 120 l 1
 360 310 l 25
 270 400 l 1
 120 250 l 1049
100 40 m 25
 140 0 l 1049
100 625 m 25
 140 585 l 1049
120 605 m 9
 120 20 l 1049
EndSplineSet
Fore
SplineSet
73 609 m 1xbc
 116 652 l 1
 136 632 l 1
 147 621 l 1
 167 601 l 1
 147 581 l 1
 147 288 l 1
 286 427 l 1
 387 326 l 1
 387 136 l 1
 496 27 l 1
 573 104 l 1
 573 354 l 1
 566 362 l 2
 550 378 513 418 513 456 c 0
 513 476 523 493 536 506 c 2
 579 548 l 2
 598 567 621 577 622 577 c 2
 633 566 l 1
 590 523 l 2
 589 523 583 520 574 514 c 1
 570 505 567 498 567 488 c 0
 567 454 597 418 614 399 c 0
 615 398 616 397 616 397 c 1
 627 386 l 1
 627 136 l 1
 464 -27 l 1
 333 104 l 1
 333 294 l 2
 333 338 277 350 254 373 c 1
 147 266 l 1
 147 36 l 1
 167 16 l 1
 124 -27 l 1
 104 -7 l 1
 93 4 l 1
 73 24 l 1
 93 44 l 1
 93 234 l 1
 93 589 l 1
 73 609 l 1xbc
EndSplineSet
EndChar
StartChar: wynn
Encoding: 447 447 877
Width: 480
Flags: W
HStem: -177 21G<93 124> 407 20G<96 136 236 276> 407 20G<96 136 236 276>
VStem: 93 54<-134 -28 -6 26 48 296 318 356> 333 54<266 296>
AnchorPoint: "abvmark" 240 500 basechar 0
LayerCount: 2
Back
SplineSet
60 -50 m 9
 360 250 l 1
 360 280 l 25
 240 400 l 1
 120 280 l 1049
100 400 m 25
 140 360 l 1049
120 380 m 1
 120 -150 l 1025
EndSplineSet
Fore
SplineSet
73 384 m 1xd8
 116 427 l 1
 136 407 l 1
 147 396 l 1
 167 376 l 1
 147 356 l 1
 147 318 l 1
 256 427 l 1
 387 296 l 1
 387 266 l 1
 147 26 l 1
 147 -134 l 1
 104 -177 l 1
 93 -166 l 1
 93 -28 l 1
 44 -77 l 1
 33 -66 l 1
 93 -6 l 1
 93 264 l 1
 93 364 l 1
 73 384 l 1xd8
147 296 m 1
 147 48 l 1
 333 234 l 1
 333 264 l 2
 333 325 256 341 224 373 c 1
 147 296 l 1
EndSplineSet
EndChar
StartChar: dotbelowcmb
Encoding: 803 803 357
Width: 0
VWidth: 400
Flags: W
HStem: -167 94
VStem: -287 94
AnchorPoint: "blwmark" -240 0 mark 0
LayerCount: 2
Back
SplineSet
-260 -100 m 25
 -220 -140 l 1049
EndSplineSet
Fore
SplineSet
-287 -116 m 1
 -244 -73 l 1
 -193 -124 l 1
 -236 -167 l 1
 -287 -116 l 1
EndSplineSet
EndChar
StartChar: tridotright
Encoding: 4347 4347 895
Width: 600
Flags: W
LayerCount: 2
Back
SplineSet
460 195 m 25
 500 155 l 1049
160 350 m 25
 200 310 l 1049
160 40 m 25
 200 0 l 1049
EndSplineSet
Fore
SplineSet
133 24 m 1
 176 67 l 1
 227 16 l 1
 184 -27 l 1
 133 24 l 1
133 334 m 1
 176 377 l 1
 227 326 l 1
 184 283 l 1
 133 334 l 1
433 179 m 1
 476 222 l 1
 527 171 l 1
 484 128 l 1
 433 179 l 1
EndSplineSet
EndChar
StartChar: quoteright
Encoding: 8217 8217 255
Width: 360
Flags: W
HStem: 423 194
VStem: 108 114
LayerCount: 2
Back
SplineSet
155 590 m 25
 195 550 l 1
 195 510 l 25
 135 450 l 1049
EndSplineSet
Fore
SplineSet
128 574 m 1
 171 617 l 1
 222 566 l 1
 222 526 l 1
 119 423 l 1
 108 434 l 1
 168 494 l 1
 168 534 l 1
 128 574 l 1
EndSplineSet
EndChar
StartChar: quotedblright
Encoding: 8221 8221 252
Width: 600
Flags: W
HStem: 423 194
LayerCount: 2
Back
SplineSet
395 590 m 25
 435 550 l 1
 435 510 l 25
 375 450 l 1049
155 590 m 25
 195 550 l 1
 195 510 l 25
 135 450 l 1049
EndSplineSet
Fore
SplineSet
128 574 m 1
 171 617 l 1
 222 566 l 1
 222 526 l 1
 119 423 l 1
 108 434 l 1
 168 494 l 1
 168 534 l 1
 128 574 l 1
368 574 m 1
 411 617 l 1
 462 566 l 1
 462 526 l 1
 359 423 l 1
 348 434 l 1
 408 494 l 1
 408 534 l 1
 368 574 l 1
EndSplineSet
EndChar
StartChar: quotedblbase
Encoding: 8222 8222 253
Width: 600
VWidth: 450
Flags: W
HStem: -127 194
LayerCount: 2
Back
SplineSet
395 40 m 25
 435 0 l 1
 435 -40 l 25
 375 -100 l 1049
155 40 m 25
 195 0 l 1
 195 -40 l 25
 135 -100 l 1049
EndSplineSet
Fore
SplineSet
128 24 m 1
 171 67 l 1
 222 16 l 1
 222 -24 l 1
 119 -127 l 1
 108 -116 l 1
 168 -56 l 1
 168 -16 l 1
 128 24 l 1
368 24 m 1
 411 67 l 1
 462 16 l 1
 462 -24 l 1
 359 -127 l 1
 348 -116 l 1
 408 -56 l 1
 408 -16 l 1
 368 24 l 1
EndSplineSet
EndChar
StartChar: bullet
Encoding: 8226 8226 259
Width: 360
Flags: W
HStem: 228 124
VStem: 118 124
LayerCount: 2
Back
SplineSet
165 325 m 25
 215 275 l 25
 195 255 l 25
 145 305 l 25
 165 325 l 25
EndSplineSet
Fore
SplineSet
181 352 m 1
 242 291 l 1
 179 228 l 1
 118 289 l 1
 181 352 l 1
EndSplineSet
EndChar
StartChar: guilsinglleft
Encoding: 8249 8249 242
Width: 360
Flags: W
HStem: 23 329
VStem: 33 294
LayerCount: 2
Back
SplineSet
270 325 m 17
 270 325 243.919921876 295.744140624 210 275 c 0
 96 207 60 200 60 200 c 1
 60 200 137 174 240 100 c 0
 265.14976701 81.7315958294 300 50 300 50 c 1033
EndSplineSet
Fore
SplineSet
286 352 m 1
 297 341 l 1
 297 341 294 337 289 332 c 2
 247 290 l 2
 237 280 217 262 194 248 c 0
 165 231 141 217 122 207 c 1
 154 191 202 166 256 127 c 0
 281 109 316 77 316 77 c 1
 327 66 l 1
 284 23 l 1
 284 23 249 55 224 73 c 0
 121 147 44 173 44 173 c 1
 33 184 l 1
 76 227 l 1
 76 227 112 234 226 302 c 0
 243 313 258 325 269 335 c 2
 286 352 l 1
EndSplineSet
EndChar
StartChar: Euro
Encoding: 8364 8364 264
Width: 660
Flags: W
HStem: 198 54<76 153 207 404> 348 54<76 157 207 211 233 464> 498 21G<514 574> 607 20G<416 476>
VStem: 153 54<122 198 252 344>
LayerCount: 2
Back
SplineSet
60 225 m 25
 420 225 l 1049
60 375 m 25
 480 375 l 1049
570 525 m 9
 420 600 l 25
 180 360 l 25
 180 100 l 25
 420 0 l 25
 600 180 l 1041
EndSplineSet
Fore
SplineSet
597 541 m 1
 554 498 l 1
 404 573 l 2
 403 573 287 457 233 402 c 1
 496 402 l 1
 507 391 l 1
 464 348 l 1
 207 348 l 1
 207 252 l 1
 436 252 l 1
 447 241 l 1
 404 198 l 1
 207 198 l 1
 207 122 l 1
 436 27 l 2
 437 27 561 152 573 164 c 2
 616 207 l 1
 627 196 l 1
 404 -27 l 1
 164 73 l 1
 153 84 l 1
 153 198 l 1
 44 198 l 1
 33 209 l 1
 76 252 l 1
 153 252 l 1
 153 344 l 1
 157 348 l 1
 44 348 l 1
 33 359 l 1
 76 402 l 1
 211 402 l 1
 436 627 l 1
 586 552 l 1
 597 541 l 1
EndSplineSet
EndChar
StartChar: minus
Encoding: 8722 8722 214
Width: 720
Flags: W
HStem: 273 54<136 584>
LayerCount: 2
Back
SplineSet
120 300 m 25
 600 300 l 1049
EndSplineSet
Fore
SplineSet
93 284 m 1
 136 327 l 1
 616 327 l 1
 627 316 l 1
 584 273 l 1
 104 273 l 1
 93 284 l 1
EndSplineSet
EndChar
StartChar: proportion
Encoding: 8759 8759 898
Width: 720
Flags: W
LayerCount: 2
Back
SplineSet
520 350 m 25
 560 310 l 1049
520 40 m 25
 560 0 l 1049
160 350 m 25
 200 310 l 1049
160 40 m 25
 200 0 l 1049
EndSplineSet
Fore
SplineSet
133 24 m 1
 176 67 l 1
 227 16 l 1
 184 -27 l 1
 133 24 l 1
133 334 m 1
 176 377 l 1
 227 326 l 1
 184 283 l 1
 133 334 l 1
493 24 m 1
 536 67 l 1
 587 16 l 1
 544 -27 l 1
 493 24 l 1
493 334 m 1
 536 377 l 1
 587 326 l 1
 544 283 l 1
 493 334 l 1
EndSplineSet
EndChar
StartChar: FleuronRight
Encoding: 10087 10087 956
Width: 960
Flags: W
HStem: 507 20G<176 220>
LayerCount: 2
Back
SplineSet
60 150 m 25
 90 200 l 25
 390 300 l 1049
210 0 m 25
 180 25 l 25
 210 475 l 25
 180 500 l 1049
900 350 m 1
 900 350 746 25 540 25 c 27
 449 25 360 74 360 150 c 27
 360 212 510 250 510 250 c 1
 510 250 360 288 360 350 c 27
 360 405 421 450 480 450 c 3
 568 450 607 386 660 325 c 8
 695 285 691 225 750 225 c 3
 800 225 870 325 870 325 c 1025
EndSplineSet
Fore
SplineSet
916 377 m 1
 927 366 l 1
 927 366 924 360 919 351 c 0
 900 315 847 219 772 144 c 2
 729 101 l 2
 671 44 601 -2 524 -2 c 0
 466 -2 410 18 376 52 c 2
 364 63 l 2
 345 82 333 106 333 134 c 0
 333 147 340 160 351 171 c 2
 394 214 l 2
 405 225 420 235 436 243 c 1
 415 251 393 262 376 275 c 1
 374 273 l 1
 219 221 l 1
 207 42 l 1
 226 27 l 1
 237 16 l 1
 194 -27 l 1
 164 -2 l 1
 153 9 l 1
 166 204 l 1
 96 180 l 1
 87 166 l 1
 44 123 l 1
 33 134 l 1
 63 184 l 1
 106 227 l 1
 169 248 l 1
 183 458 l 1
 164 473 l 1
 153 484 l 1
 196 527 l 1
 226 502 l 1
 237 491 l 1
 222 266 l 1
 344 306 l 1
 337 315 333 324 333 334 c 0
 333 357 344 379 361 396 c 2
 403 438 l 2
 404 439 l 2
 427 462 462 477 496 477 c 0
 548 477 582 455 613 424 c 2
 624 413 l 1
 625 412 l 2
 646 391 665 366 687 341 c 0
 709 316 716 283 732 262 c 0
 741 256 751 252 766 252 c 0
 782 252 800 262 817 276 c 0
 818 277 818 278 819 279 c 0
 833 296 843 309 843 309 c 1
 886 352 l 1
 888 349 l 1
 916 377 l 1
EndSplineSet
EndChar
StartChar: ruslst
Encoding: 11789 11789 903
Width: 360
Flags: W
HStem: 423 304
VStem: 33 294
LayerCount: 2
Back
SplineSet
60 450 m 25
 300 700 l 1049
EndSplineSet
Fore
SplineSet
44 423 m 1
 33 434 l 1
 273 684 l 1
 316 727 l 1
 327 716 l 1
 87 466 l 1
 44 423 l 1
EndSplineSet
EndChar
StartChar: llslst
Encoding: 11805 11805 905
Width: 360
Flags: W
HStem: -177 304
VStem: 33 294
LayerCount: 2
Back
SplineSet
60 -150 m 25
 300 100 l 1049
EndSplineSet
Fore
SplineSet
44 -177 m 1
 33 -166 l 1
 273 84 l 1
 316 127 l 1
 327 116 l 1
 87 -134 l 1
 44 -177 l 1
EndSplineSet
EndChar
StartChar: kbarslash
Encoding: 42821 42821 864
Width: 480
Flags: W
HStem: 432 20G<336 376> 448 54<46 93 147 224>
VStem: 93 54<44 200 234 448 502 581> 333 54<44 152 174 180 366 381>
AnchorPoint: "abvmark" 240 700 basechar 0
AnchorPoint: "blwmark" 240 0 basechar 0
LayerCount: 2
Back
SplineSet
340 425 m 25
 380 385 l 1049
100 625 m 25
 140 585 l 1049
100 625 m 25
 140 585 l 1049
120 200 m 1
 360 350 l 9
 360 405 l 1049
240 275 m 1
 360 200 l 1
 360 20 l 1025
340 40 m 25
 380 0 l 1049
100 40 m 25
 140 0 l 1049
100 625 m 25
 140 585 l 1049
120 605 m 9
 120 20 l 1049
240 475 m 25
 30 475 l 1049
450 280 m 25
 270 100 l 1049
EndSplineSet
Fore
SplineSet
466 307 m 1xb0
 477 296 l 1
 387 206 l 1
 387 36 l 1
 407 16 l 1
 364 -27 l 1
 344 -7 l 1
 333 4 l 1
 313 24 l 1
 333 44 l 1
 333 152 l 1
 254 73 l 1
 243 84 l 1
 333 174 l 1
 333 180 l 1
 224 248 l 1
 147 200 l 1
 147 36 l 1
 167 16 l 1
 124 -27 l 1
 104 -7 l 1
 93 4 l 1
 73 24 l 1
 93 44 l 1
 93 184 l 1
 93 448 l 1
 14 448 l 1
 3 459 l 1
 46 502 l 1
 93 502 l 1
 93 589 l 1
 73 609 l 1
 116 652 l 1
 136 632 l 1
 147 621 l 1
 167 601 l 1
 147 581 l 1
 147 502 l 1
 256 502 l 1
 267 491 l 1
 224 448 l 1
 147 448 l 1x70
 147 234 l 1
 333 350 l 1
 333 389 l 1
 313 409 l 1
 356 452 l 1
 376 432 l 1
 387 421 l 1
 407 401 l 1
 387 381 l 1
 387 366 l 1
 344 323 l 1
 283 285 l 1
 376 227 l 1
 381 222 l 1
 466 307 l 1xb0
EndSplineSet
EndChar
StartChar: lbroken
Encoding: 42823 42823 574
Width: 420
Flags: W
HStem: 407 20G<296 327> 407 20G<296 327>
VStem: 93 54<258 581> 273 54<44 362>
LayerCount: 2
Back
SplineSet
280 40 m 25
 320 0 l 25
 360 40 l 1049
100 625 m 25
 140 585 l 1049
120 605 m 1
 120 220 l 1
 300 400 l 1
 300 20 l 1025
EndSplineSet
Fore
SplineSet
73 609 m 1xb0
 116 652 l 1
 136 632 l 1
 147 621 l 1
 167 601 l 1
 147 581 l 1
 147 258 l 1
 316 427 l 1
 327 416 l 1
 327 36 l 1
 336 27 l 1
 376 67 l 1
 387 56 l 1
 304 -27 l 1
 284 -7 l 1
 279 -1 l 1
 253 24 l 1
 273 44 l 1
 273 362 l 1
 104 193 l 1
 93 204 l 1
 93 589 l 1
 73 609 l 1xb0
EndSplineSet
EndChar
StartChar: oeloop
Encoding: 42829 42829 867
Width: 660
Flags: W
HStem: 407 20G<236 276 476 526> 407 20G<236 276 476 526>
VStem: 93 54<104 264> 333 54<118 296>
AnchorPoint: "abvmark" 360 500 basechar 0
AnchorPoint: "blwmark" 360 0 basechar 0
LayerCount: 2
Back
SplineSet
240 400 m 25
 120 280 l 25
 120 120 l 25
 240 0 l 25
 360 120 l 25
 360 280 l 25
 240 400 l 25
360 80 m 25
 360 280 l 25
 480 400 l 25
 600 320 l 1
 360 80 l 1025
EndSplineSet
Fore
SplineSet
387 96 m 1
 344 53 l 1
 333 64 l 1025x30
344 53 m 1
 333 64 l 1
 333 82 l 1
 224 -27 l 1
 93 104 l 1
 93 264 l 1
 256 427 l 1
 376 307 l 1
 496 427 l 1xb0
 616 347 l 1
 627 336 l 1
 344 53 l 1
387 118 m 1
 571 302 l 1
 464 373 l 1
 387 296 l 1
 387 136 l 1
 387 118 l 1
224 373 m 1
 147 296 l 1
 147 136 l 2
 147 75 224 59 256 27 c 1
 333 104 l 1
 333 264 l 2
 333 325 256 341 224 373 c 1
EndSplineSet
EndChar
StartChar: qslash
Encoding: 42841 42841 872
Width: 480
Flags: W
HStem: -177 21G<183 214 333 364> 325 54<280.294 325.904> 407 20G<236 267 356 387> 407 20G<236 267 356 387>
VStem: 93 54<136 264> 333 54<-134 -38 -16 16 38 82 104 354 382.047 384>
AnchorPoint: "abvmark" 270 500 basechar 0
LayerCount: 2
Back
SplineSet
360 120 m 9
 240 0 l 25
 120 120 l 25
 120 280 l 25
 240 400 l 1
 240 400 264 352 300 352 c 24
 336 352 360 400 360 400 c 9
 360 -150 l 1049
450 90 m 25
 210 -150 l 1049
EndSplineSet
Fore
SplineSet
466 117 m 1xec
 477 106 l 1
 387 16 l 1
 387 -134 l 1
 344 -177 l 1
 333 -166 l 1
 333 -38 l 1
 194 -177 l 1
 183 -166 l 1
 333 -16 l 1
 333 82 l 1
 224 -27 l 1
 93 104 l 1
 93 264 l 1
 256 427 l 1
 267 416 l 1
 267 416 273 404 283 393 c 0
 293 385 303 379 316 379 c 0
 322 379 327 380 332 382 c 0
 333 383 333 384 333 384 c 1
 376 427 l 1
 387 416 l 1
 387 38 l 1
 466 117 l 1xec
333 104 m 1
 333 354 l 1
 323 344 l 2
 313 334 300 325 284 325 c 0
 269 325 256 334 246 344 c 0
 234 355 l 2
 229 360 226 365 222 370 c 1
 147 296 l 1
 147 136 l 1
 256 27 l 1
 333 104 l 1
EndSplineSet
EndChar
StartChar: zvisigoth
Encoding: 42851 42851 839
Width: 420
Flags: W
HStem: -227 54<176.37 246.708> -177 54<47.7889 133.138> 407 20G<236 276> 407 20G<236 276>
VStem: 93 54<222 264> 273 54<-134 -25>
AnchorPoint: "abvmark" 240 500 basechar 0
LayerCount: 2
Back
SplineSet
360 280 m 9
 240 400 l 25
 120 280 l 1
 120 200 l 25
 240 150 l 25
 120 30 l 1
 300 0 l 1
 300 -150 l 1
 300 -150 244 -200 210 -200 c 0
 172 -200 141 -150 90 -150 c 16
 44 -150 0 -200 0 -200 c 1025
EndSplineSet
Fore
SplineSet
387 296 m 1xac
 344 253 l 1
 224 373 l 1
 147 296 l 1
 147 222 l 1
 256 177 l 1
 267 166 l 1
 155 54 l 1
 316 27 l 1
 327 16 l 1
 327 -134 l 1
 284 -177 l 1x6c
 284 -177 228 -227 194 -227 c 0x8c
 156 -227 125 -177 74 -177 c 0x4c
 42 -177 11 -201 -4 -215 c 2
 -16 -227 l 1x8c
 -27 -216 l 2
 -27 -216 -25 -213 -22 -210 c 2
 -21 -210 l 2
 21 -167 l 2
 34 -154 70 -123 106 -123 c 0x4c
 157 -123 188 -173 226 -173 c 0
 240 -173 256 -165 273 -155 c 1
 273 -25 l 1
 104 3 l 1
 93 14 l 1
 208 130 l 1
 104 173 l 1
 93 184 l 1
 93 264 l 1
 256 427 l 1
 387 296 l 1xac
EndSplineSet
EndChar
StartChar: vend
Encoding: 42857 42857 876
Width: 480
Flags: W
HStem: -177 21G<93 124> 407 20G<96 136 316 356> 407 20G<96 136 316 356>
VStem: 93 54<-134 -28 -6 26 48 356> 333 54<266 367.563>
AnchorPoint: "abvmark" 240 500 basechar 0
LayerCount: 2
Back
SplineSet
60 -50 m 9
 360 250 l 1
 360 360 l 25
 320 400 l 1025
100 400 m 25
 140 360 l 1049
120 380 m 1
 120 -150 l 1025
EndSplineSet
Fore
SplineSet
73 384 m 1xd8
 116 427 l 1
 136 407 l 1
 147 396 l 1
 167 376 l 1
 147 356 l 1
 147 48 l 1
 333 234 l 1
 333 344 l 2
 333 359 312 365 304 373 c 2
 293 384 l 1
 336 427 l 1
 387 376 l 1
 387 266 l 1
 147 26 l 1
 147 -134 l 1
 104 -177 l 1
 93 -166 l 1
 93 -28 l 1
 44 -77 l 1
 33 -66 l 1
 93 -6 l 1
 93 364 l 1
 73 384 l 1xd8
EndSplineSet
EndChar
StartChar: num
Encoding: 42868 42868 597
Width: 749
Flags: W
HStem: -177 21G<363 395.633> -27 54<566 650.66> 407 20G<96 136 266 306> 407 20G<96 136 266 306>
VStem: 93 54<44 266 288 356> 333 54<44 326> 543 54<47.7563 178>
LayerCount: 2
Back
SplineSet
510 225 m 1
 570 200 l 1
 570 200 570 139 570 100 c 27
 570 3 390 -150 390 -150 c 1025
690 50 m 17
 690 50 667 0 600 0 c 3
 487 0 440 60 440 60 c 1
 380 0 l 25
 340 40 l 1025
360 20 m 1
 360 310 l 25
 270 400 l 1
 120 250 l 1049
100 40 m 25
 140 0 l 1049
140 360 m 25
 100 400 l 1049
120 380 m 9
 120 20 l 1025
EndSplineSet
Fore
SplineSet
706 77 m 1xee
 717 66 l 1
 717 66 712 55 701 44 c 2
 659 2 l 2
 645 -12 621 -27 584 -27 c 0
 563 -27 545 -24 528 -21 c 1
 509 -45 487 -67 469 -85 c 2
 427 -128 l 2
 397 -158 374 -177 374 -177 c 1
 363 -166 l 1
 406 -123 l 1
 406 -123 418 -112 436 -95 c 0
 458 -71 483 -44 503 -15 c 1
 463 -2 440 18 430 28 c 2
 424 33 l 1
 364 -27 l 1
 344 -7 l 1
 333 4 l 1
 313 24 l 1
 333 44 l 1
 333 294 l 2
 333 338 277 350 254 373 c 1
 147 266 l 1
 147 36 l 1
 167 16 l 1
 124 -27 l 1
 104 -7 l 1
 93 4 l 1
 73 24 l 1
 93 44 l 1
 93 234 l 1
 93 364 l 1
 73 384 l 1
 116 427 l 1
 136 407 l 1
 147 396 l 1
 167 376 l 1
 147 356 l 1
 147 288 l 1
 286 427 l 1
 387 326 l 1
 387 36 l 1
 396 27 l 1
 456 87 l 1
 467 76 l 1
 467 75 l 0
 479 65 500 50 533 39 c 1
 539 55 543 70 543 84 c 2
 543 178 l 1
 494 198 l 1
 483 209 l 1
 526 252 l 1
 586 227 l 1
 597 216 l 1
 597 116 l 2
 597 90 584 61 566 31 c 1
 581 28 598 27 616 27 c 0
 638 27 654 33 668 40 c 1
 706 77 l 1xee
EndSplineSet
EndChar
StartChar: um
Encoding: 42872 42872 958
Width: 480
Flags: W
HStem: -177 21G<93 124> 313 54<290.594 316> 407 20G<236 267 413.778 447> 407 20G<236 267 413.778 447>
VStem: 93 54<-134 17.4375 263 264>
LayerCount: 2
Back
SplineSet
120 -150 m 1
 120 -150 120 -58 120 0 c 3
 120 141 420 400 420 400 c 1
 420 400 364 340 330 340 c 0
 277 340 240 400 240 400 c 9
 120 280 l 1
 120 240 l 1
 360 160 l 1
 360 120 l 1
 240 0 l 17
 240 0 180 60 150 60 c 24
 120 60 60 0 60 0 c 1025
EndSplineSet
Fore
SplineSet
166 87 m 1xc8
 196 87 256 27 256 27 c 1
 333 104 l 1
 333 137 l 1
 219 175 l 1
 197 145 179 115 166 87 c 1xc8
316 313 m 2
 315 313 314 313 314 313 c 0
 286 313 262 330 246 346 c 2
 235 358 l 2
 230 363 226 367 223 371 c 1
 147 296 l 1
 147 263 l 1
 239 232 l 1
 260 256 281 278 301 298 c 2
 316 313 l 2
104 -177 m 1
 93 -166 l 1
 93 -16 l 2
 93 -6 95 6 98 18 c 1
 71 0 44 -27 44 -27 c 1
 33 -16 l 1
 76 27 l 1
 76 27 93 45 114 61 c 1
 131 96 156 133 185 169 c 0
 188 173 192 179 196 183 c 1
 104 213 l 1
 93 224 l 1
 93 264 l 1
 256 427 l 1
 267 416 l 1
 267 416 273 406 283 395 c 0
 298 381 321 367 346 367 c 0
 354 367 362 370 371 375 c 0
 379 379 388 385 396 391 c 0
 420 414 436 427 436 427 c 1xe8
 447 416 l 1
 447 416 445 414 441 410 c 2
 399 367 l 2
 398 367 l 0
 391 360 379 348 365 337 c 0
 356 328 345 319 334 308 c 0
 314 287 292 263 271 239 c 0
 267 235 263 230 259 226 c 1
 376 187 l 1
 387 176 l 1
 387 136 l 1
 224 -27 l 1
 224 -27 180 18 148 30 c 1
 147 25 147 21 147 16 c 2
 147 -134 l 1
 104 -177 l 1
EndSplineSet
EndChar
StartChar: q_v
Encoding: 60113 60113 967
Width: 720
Flags: W
HStem: -177 21G<333 364> 325 54<280.294 325.904> 407 20G<236 267 356 387> 407 20G<236 267 356 387 621.5 633>
VStem: 93 54<136 264> 333 54<-134 51 136 354 382.047 384> 513 54<430.872 504.855> 573 54<136 354>
LayerCount: 2
Back
SplineSet
360 120 m 9
 240 0 l 25
 120 120 l 25
 120 280 l 25
 240 400 l 1
 240 400 264 352 300 352 c 24
 336 352 360 400 360 400 c 9
 360 -150 l 1049
360 120 m 1
 480 0 l 25
 600 120 l 1
 600 370 l 17
 600 370 540 423 540 472 c 8
 540 521 604 550 606 550 c 1033
EndSplineSet
Fore
SplineSet
333 82 m 1xef
 224 -27 l 1
 93 104 l 1
 93 264 l 1
 256 427 l 1
 267 416 l 1
 267 416 273 404 283 393 c 0
 293 385 303 379 316 379 c 0
 322 379 327 380 332 382 c 0
 333 383 333 384 333 384 c 1
 376 427 l 1
 387 416 l 1
 387 136 l 1
 496 27 l 1
 573 104 l 1
 573 354 l 1
 565 362 l 2
 549 378 513 418 513 456 c 0
 513 476 523 493 536 506 c 2
 579 548 l 2
 579 549 l 2
 598 567 621 577 622 577 c 2
 633 566 l 1
 590 523 l 2
 589 523 584 520 574 514 c 1
 570 507 567 498 567 488 c 0
 567 454 596 418 614 399 c 0
 615 398 616 397 616 397 c 1
 627 386 l 1
 627 136 l 1
 464 -27 l 1
 387 51 l 1
 387 -134 l 1
 344 -177 l 1
 333 -166 l 1
 333 82 l 1xef
333 104 m 1
 333 354 l 1
 323 344 l 2
 313 334 300 325 284 325 c 0
 269 325 256 334 246 344 c 0
 234 355 l 2
 229 360 226 365 222 370 c 1
 147 296 l 1
 147 136 l 1
 256 27 l 1
 333 104 l 1
EndSplineSet
LCarets2: 1 360 
Ligature2: "Ligatures-1" q v
EndChar
StartChar: longs_h
Encoding: 60321 60321 707
Width: 780
Flags: W
HStem: -227 54<20.5755 99.0444> -177 54<-102.126 -20.5755> 407 20G<566 606> 407 20G<566 606> 573 54<323.263 393>
VStem: 123 54<-134 514> 393 54<44 266 288 573> 633 54<44 326>
LayerCount: 2
Back
SplineSet
640 40 m 25
 680 0 l 1049
400 40 m 25
 440 0 l 1049
660 20 m 25
 660 310 l 25
 570 400 l 1
 420 250 l 1049
-150 -200 m 17
 -150 -200 -106 -150 -60 -150 c 8
 -9 -150 9 -200 60 -200 c 24
 100 -200 150 -150 150 -150 c 1
 150 530 l 1
 270 650 l 1
 270 650 304 600 420 600 c 9
 420 20 l 1025
EndSplineSet
Fore
SplineSet
-166 -227 m 1x8f
 -177 -216 l 1
 -177 -216 -174 -213 -171 -210 c 2
 -129 -167 l 2
 -116 -154 -80 -123 -44 -123 c 0x4f
 7 -123 25 -173 76 -173 c 0x8f
 92 -173 108 -165 123 -156 c 1
 123 514 l 1
 286 677 l 1
 297 666 l 1
 297 665 l 0
 315 650 357 627 436 627 c 1
 447 616 l 1
 447 288 l 1
 586 427 l 1
 687 326 l 1
 687 36 l 1
 707 16 l 1
 664 -27 l 1
 639 -1 l 1
 633 4 l 1
 613 24 l 1
 633 44 l 1
 633 294 l 2
 633 338 577 350 554 373 c 1
 447 266 l 1
 447 36 l 1
 467 16 l 1
 424 -27 l 1
 404 -7 l 1
 393 4 l 1
 373 24 l 1
 393 44 l 1
 393 234 l 1
 393 573 l 1
 311 575 273 604 260 617 c 2
 254 623 l 1
 177 546 l 1
 177 -134 l 1
 134 -177 l 1x6f
 134 -177 84 -227 44 -227 c 0x8f
 -7 -227 -25 -177 -76 -177 c 0x4f
 -108 -177 -138 -200 -154 -215 c 2
 -166 -227 l 1x8f
EndSplineSet
LCarets2: 1 360 
Ligature2: "Ligatures-1" longs h
EndChar
StartChar: longs_p
Encoding: 60325 60325 709
Width: 780
Flags: W
HStem: -227 54<20.5755 99.0444> -177 54<-102.126 -20.5755> 407 20G<536 576> 407 20G<536 576> 563 54<353.016 507.968>
VStem: 123 54<-134 514> 393 54<-134 15 75.0288 296 318 326> 633 54<136 296>
LayerCount: 2
Back
SplineSet
300 0 m 1
 300 0 355 60 390 60 c 11
 454 60 540 0 540 0 c 9
 660 120 l 1
 660 280 l 25
 540 400 l 1
 420 280 l 1049
420 370 m 1
 420 -150 l 1025
-150 -200 m 17
 -150 -200 -106 -150 -60 -150 c 8
 -9 -150 9 -200 60 -200 c 24
 100 -200 150 -150 150 -150 c 1
 150 530 l 1
 270 650 l 17
 270 650 324 590 480 590 c 3
 522 590 571 650 571 650 c 9
 360 430 l 9
 450 340 l 1025
EndSplineSet
Fore
SplineSet
567 634 m 1x8f
 387 446 l 2
 385 444 412 418 435 396 c 1
 436 397 l 1
 447 386 l 1
 447 384 l 1
 456 375 464 369 466 367 c 2
 477 356 l 1
 447 326 l 1
 447 318 l 1
 556 427 l 1
 687 296 l 1
 687 136 l 1
 524 -27 l 1
 524 -27 489 -3 447 15 c 1
 447 -134 l 1
 404 -177 l 1
 393 -166 l 1
 393 32 l 1
 387 33 380 33 374 33 c 0
 351 33 319 7 300 -11 c 2
 284 -27 l 1
 273 -16 l 1
 273 -16 276 -13 281 -8 c 2
 323 35 l 2
 337 49 367 77 393 85 c 1
 393 264 l 1
 393 354 l 1
 333 414 l 1
 477 565 l 2
 473 564 468 563 464 563 c 0
 319 563 262 615 255 622 c 2
 254 623 l 1
 177 546 l 1
 177 -134 l 1
 134 -177 l 1x6f
 134 -177 84 -227 44 -227 c 0x8f
 -7 -227 -25 -177 -76 -177 c 0x4f
 -108 -177 -138 -200 -154 -215 c 2
 -166 -227 l 1x8f
 -177 -216 l 1
 -177 -216 -174 -213 -171 -210 c 2
 -129 -167 l 2
 -116 -154 -80 -123 -44 -123 c 0x4f
 7 -123 25 -173 76 -173 c 0
 92 -173 108 -165 123 -156 c 1
 123 514 l 1
 286 677 l 1
 287 675 l 2
 298 665 357 617 496 617 c 0
 516 617 538 631 555 645 c 2
 587 677 l 1
 598 666 l 2
 598 666 592 659 583 650 c 2
 583 649 l 2
 567 634 l 1x8f
447 296 m 1
 447 80 l 1
 501 64 556 27 556 27 c 1
 556 27 626 97 633 104 c 1
 633 264 l 2
 633 325 556 341 524 373 c 1
 447 296 l 1
EndSplineSet
LCarets2: 1 360 
Ligature2: "Ligatures-1" longs p
EndChar
StartChar: c_t
Encoding: 61125 61125 335
Width: 809
Flags: W
HStem: 323 54<329.81 543> 407 20G<232 352 672.818 747> 427 130G<232 352 566 597 672.818 747>
VStem: 93 54<136 284> 543 54<45.3073 327 383 534>
LayerCount: 2
Back
SplineSet
360 120 m 9
 240 0 l 25
 120 120 l 25
 120 300 l 1
 240 400 l 17
 240 400 324.968994112 350 480 350 c 3
 664 350 720 400 720 400 c 1033
570 550 m 1
 570 60 l 1
 630 0 l 1
 750 120 l 1025
EndSplineSet
Fore
SplineSet
586 577 m 1xd8
 597 566 l 1
 597 383 l 1
 701 396 736 427 736 427 c 1
 747 416 l 1
 704 373 l 1
 704 373 677 349 597 334 c 1
 597 76 l 2
 597 49 632 41 646 27 c 1
 766 147 l 1
 777 136 l 1
 614 -27 l 1
 543 44 l 1
 543 327 l 1
 520 325 493 323 464 323 c 0
 309 323 224 373 224 373 c 1
 147 308 l 1
 147 136 l 1
 256 27 l 1
 376 147 l 1
 387 136 l 1
 224 -27 l 1
 93 104 l 1
 93 284 l 1
 136 327 l 1
 256 427 l 1
 256 427 341 377 496 377 c 0
 513 377 528 377 543 378 c 1
 543 534 l 1
 586 577 l 1xd8
EndSplineSet
LCarets2: 1 420 
Ligature2: "Ligatures-1" c t
EndChar
StartChar: e_y
Encoding: 61127 61127 351
Width: 720
GlyphClass: 3
Flags: W
HStem: -227 54<472.501 540.472> -177 54<347.874 425.576> 407 20G<236 286 576 616> 407 20G<236 286 576 616>
VStem: 93 54<118 264> 333 54<136 282> 573 54<-134 82 104 356>
CounterMasks: 1 0e
LayerCount: 2
Back
SplineSet
240 0 m 25
 120 80 l 25
 120 280 l 25
 240 400 l 25
 360 320 l 1
 120 80 l 1025
620 360 m 25
 580 400 l 1049
300 -200 m 17
 300 -200 344 -150 390 -150 c 8
 402 -150 495 -200 510 -200 c 24
 529 -200 600 -150 600 -150 c 1
 600 380 l 1025
600 120 m 9
 480 0 l 25
 360 120 l 1
 360 320 l 1049
EndSplineSet
Fore
SplineSet
284 -227 m 1x8e
 273 -216 l 1
 273 -216 276 -213 279 -210 c 2
 321 -167 l 2
 334 -154 370 -123 406 -123 c 0x4e
 418 -123 511 -173 526 -173 c 0x8e
 535 -173 554 -162 573 -151 c 1
 573 82 l 1
 464 -27 l 1
 333 104 l 1
 333 282 l 1
 149 98 l 1
 256 27 l 1
 267 16 l 1
 224 -27 l 1
 104 53 l 1
 93 64 l 1
 93 264 l 1
 256 427 l 1
 376 347 l 1
 387 336 l 1
 387 136 l 1
 496 27 l 1
 573 104 l 1
 573 364 l 1
 553 384 l 1
 596 427 l 1
 616 407 l 1
 627 396 l 1
 647 376 l 1
 627 356 l 1
 627 136 l 1
 627 -134 l 1
 584 -177 l 1x6e
 584 -177 513 -227 494 -227 c 0x8e
 479 -227 386 -177 374 -177 c 0x4e
 342 -177 312 -200 296 -215 c 2
 284 -227 l 1x8e
147 118 m 1
 331 302 l 1
 224 373 l 1
 147 296 l 1
 147 118 l 1
EndSplineSet
LCarets2: 1 360 
Ligature2: "Historic ligatures-1" e y
EndChar
StartChar: f_t
Encoding: 61131 61131 326
Width: 629
GlyphClass: 3
Flags: W
HStem: -227 54<21.566 93.3405> -177 54<-102.126 -23.7456> 373 54<76 123 177 363 417 524>
VStem: 123 54<-134 373 427 514> 363 54<45.3073 373 427 533.69>
LayerCount: 2
Back
SplineSet
-150 -200 m 17
 -150 -200 -106 -150 -60 -150 c 8
 -35 -150 33 -200 60 -200 c 24
 86 -200 150 -150 150 -150 c 1
 150 530 l 1
 270 650 l 1
 270 650 337 550 390 550 c 1
 390 60 l 1
 450 0 l 1
 570 120 l 1025
60 400 m 25
 540 400 l 1049
EndSplineSet
Fore
SplineSet
33 384 m 1xb8
 76 427 l 1
 123 427 l 1
 123 514 l 1
 286 677 l 1
 297 666 l 1
 297 666 315 638 339 613 c 0
 360 593 384 577 406 577 c 1
 417 566 l 1
 417 427 l 1
 556 427 l 1
 567 416 l 1
 524 373 l 1
 417 373 l 1
 417 76 l 2
 417 49 452 41 466 27 c 1
 586 147 l 1
 597 136 l 1
 434 -27 l 1
 363 44 l 1
 363 373 l 1
 177 373 l 1
 177 -134 l 1
 134 -177 l 1x78
 134 -177 70 -227 44 -227 c 0xb8
 17 -227 -51 -177 -76 -177 c 0x78
 -108 -177 -138 -200 -154 -215 c 2
 -166 -227 l 1xb8
 -177 -216 l 1
 -177 -216 -174 -213 -171 -210 c 2
 -129 -167 l 2
 -116 -154 -80 -123 -44 -123 c 0x78
 -19 -123 49 -173 76 -173 c 0
 88 -173 107 -163 123 -153 c 1
 123 373 l 1
 44 373 l 1
 33 384 l 1xb8
177 427 m 1
 363 427 l 1
 363 525 l 1
 343 530 321 546 303 564 c 0
 302 565 l 2
 291 576 l 2
 275 592 262 609 253 621 c 1
 177 546 l 1
 177 427 l 1
EndSplineSet
LCarets2: 1 360 
Ligature2: "Ligatures-1" f t
EndChar
StartChar: f_f_y
Encoding: 61135 61135 355
Width: 1020
GlyphClass: 3
Flags: W
HStem: -227 54<21.566 93.3405 247.834 336.679 772.501 840.472> -177 54<-102.126 -23.7456 647.874 725.576> 373 54<76 123 177 363 417 624> 407 20G<876 916> 563 54<556.95 628.249>
VStem: 123 54<-129.885 373 427 514> 363 54<-134 373 427 515.75> 633 54<136 356> 873 54<-134 82 104 356>
LayerCount: 2
Back
SplineSet
920 360 m 25
 880 400 l 1049
600 -200 m 17
 600 -200 644 -150 690 -150 c 8
 702 -150 795 -200 810 -200 c 24
 829 -200 900 -150 900 -150 c 1
 900 380 l 1025
900 120 m 9
 780 0 l 25
 660 120 l 1
 660 380 l 1049
150 -150 m 1
 187 -150 262 -200 300 -200 c 0
 334 -200 390 -150 390 -150 c 1
 390 530 l 1
 510 650 l 17
 510 650 540 590 600 590 c 24
 628 590 690 650 691 650 c 1025
-150 -200 m 1
 -150 -200 -106 -150 -60 -150 c 8
 -35 -150 33 -200 60 -200 c 24
 86 -200 150 -150 150 -150 c 1
 150 530 l 1
 270 650 l 1
 270 650 337 530 390 530 c 1025
60 400 m 1
 640 400 l 25
 680 360 l 1025
EndSplineSet
Fore
SplineSet
33 384 m 1xaf80
 76 427 l 1
 123 427 l 1
 123 514 l 1
 286 677 l 1
 297 666 l 1
 297 666 323 618 356 583 c 0
 372 568 390 557 406 557 c 1
 526 677 l 1
 537 666 l 1
 537 666 543 654 554 641 c 0
 569 628 590 617 616 617 c 0
 644 617 706 677 707 677 c 2
 718 666 l 1
 675 623 l 2
 674 623 612 563 584 563 c 0
 554 563 532 578 517 593 c 0
 506 604 l 2
 500 610 496 616 492 621 c 1
 417 546 l 1
 417 427 l 1xaf80
 656 427 l 1
 676 407 l 1
 687 396 l 1
 707 376 l 1
 687 356 l 1
 687 136 l 1
 796 27 l 1
 873 104 l 1
 873 364 l 1
 853 384 l 1
 896 427 l 1
 916 407 l 1
 921 401 l 1
 947 376 l 1
 927 356 l 1
 927 136 l 1
 927 -134 l 1
 884 -177 l 1x5f80
 884 -177 813 -227 794 -227 c 0x8f80
 779 -227 686 -177 674 -177 c 0x4f80
 642 -177 612 -200 596 -215 c 2
 584 -227 l 1x8f80
 573 -216 l 1
 573 -216 576 -213 579 -210 c 2
 621 -167 l 2
 634 -154 670 -123 706 -123 c 0x4f80
 718 -123 811 -173 826 -173 c 0x8f80
 835 -173 854 -162 873 -151 c 1
 873 82 l 1
 764 -27 l 1
 633 104 l 1
 633 364 l 1
 624 373 l 1
 417 373 l 1
 417 -134 l 1
 374 -177 l 1x6f80
 374 -177 318 -227 284 -227 c 0x8f80
 246 -227 171 -177 134 -177 c 1x4f80
 134 -177 70 -227 44 -227 c 0x8f80
 17 -227 -51 -177 -76 -177 c 0x4f80
 -108 -177 -138 -200 -154 -215 c 2
 -166 -227 l 1x8f80
 -177 -216 l 1
 -177 -216 -174 -213 -171 -210 c 2
 -129 -167 l 2
 -116 -154 -80 -123 -44 -123 c 0x4f80
 -19 -123 49 -173 76 -173 c 0
 88 -173 107 -163 123 -153 c 1
 123 373 l 1
 44 373 l 1
 33 384 l 1xaf80
177 427 m 1
 363 427 l 1
 363 505 l 1
 349 509 334 520 320 534 c 2
 309 545 l 2
 285 569 264 601 252 620 c 1
 177 546 l 1
 177 427 l 1
177 373 m 1
 177 -124 l 1
 216 -132 282 -173 316 -173 c 0
 330 -173 348 -164 363 -155 c 1
 363 373 l 1
 177 373 l 1
EndSplineSet
LCarets2: 2 360 600 
Ligature2: "Ligatures-1" f f y
EndChar
StartChar: p_p
Encoding: 61142 61142 689
Width: 720
Flags: W
HStem: -177 21G<93 124 333 364> 407 20G<96 136 236 276 476 516> 407 20G<96 136 236 276 476 516>
VStem: 93 54<-134 16 82 296 318 356> 333 54<-134 23 84 264> 573 54<136 264>
CounterMasks: 1 1c
LayerCount: 2
Back
SplineSet
360 -150 m 1
 360 280 l 9
 480 400 l 1
 600 280 l 25
 600 120 l 1
 480 0 l 1
 480 0 439 60 330 60 c 0
 295 60 240 0 240 0 c 1
 240 0 185 60 150 60 c 0
 115 60 60 0 60 0 c 1025
360 280 m 25
 240 400 l 1
 120 280 l 1049
100 400 m 25
 140 360 l 1049
120 380 m 1
 120 -150 l 1025
EndSplineSet
Fore
SplineSet
73 384 m 1xdc
 116 427 l 1
 136 407 l 1
 147 396 l 1
 167 376 l 1
 147 356 l 1
 147 318 l 1
 256 427 l 1
 376 307 l 1
 496 427 l 1
 627 296 l 1
 627 136 l 1
 464 -27 l 1
 453 -16 l 1
 453 -16 452 -14 450 -11 c 0
 438 0 417 14 387 23 c 1
 387 -134 l 1
 344 -177 l 1
 333 -166 l 1
 333 33 l 2
 332 33 332 33 331 33 c 0
 326 33 320 33 314 33 c 0
 291 33 259 7 240 -11 c 2
 224 -27 l 1
 213 -16 l 1
 213 -16 212 -15 211 -14 c 0
 195 1 169 24 147 31 c 1
 147 -134 l 1
 104 -177 l 1
 93 -166 l 1
 93 16 l 1
 80 7 69 -3 60 -11 c 2
 44 -27 l 1
 33 -16 l 2
 33 -16 35 -13 40 -8 c 2
 41 -8 l 2
 83 35 l 2
 86 38 89 40 93 44 c 2
 93 264 l 1
 93 364 l 1
 73 384 l 1xdc
387 84 m 2
 389 84 391 83 393 83 c 0
 444 74 473 51 487 37 c 2
 496 28 l 1
 573 104 l 1
 573 264 l 1
 464 373 l 1
 387 296 l 1
 387 84 l 2
147 296 m 1
 147 82 l 1
 154 85 160 87 166 87 c 0
 193 87 232 50 248 34 c 2
 256 27 l 1
 263 35 l 2
 277 49 307 77 333 85 c 1
 333 264 l 1
 224 373 l 1
 147 296 l 1
EndSplineSet
LCarets2: 1 360 
Ligature2: "Historic ligatures-1" p p
EndChar
StartChar: t_t
Encoding: 61145 61145 730
Width: 629
Flags: W
HStem: 373 54<76 123 177 363 417 524> 557 20G<146 177 386 417>
VStem: 123 54<45.3073 373 427 534> 363 54<45.3073 373 427 534>
LayerCount: 2
Back
SplineSet
390 550 m 1
 390 60 l 1
 450 0 l 1
 570 120 l 1025
60 400 m 1
 540 400 l 1041
150 550 m 1
 150 60 l 1
 210 0 l 1
 330 120 l 1025
EndSplineSet
Fore
SplineSet
166 577 m 1
 177 566 l 1
 177 427 l 1
 363 427 l 1
 363 534 l 1
 406 577 l 1
 417 566 l 1
 417 427 l 1
 556 427 l 1
 567 416 l 1
 524 373 l 1
 417 373 l 1
 417 76 l 2
 417 49 452 41 466 27 c 1
 586 147 l 1
 597 136 l 1
 434 -27 l 1
 363 44 l 1
 363 373 l 1
 177 373 l 1
 177 76 l 2
 177 49 212 41 226 27 c 1
 346 147 l 1
 357 136 l 1
 194 -27 l 1
 123 44 l 1
 123 373 l 1
 44 373 l 1
 33 384 l 1
 76 427 l 1
 123 427 l 1
 123 534 l 1
 166 577 l 1
EndSplineSet
LCarets2: 1 360 
Ligature2: "Ligatures-1" t t
EndChar
StartChar: a_n
Encoding: 61351 61351 340
Width: 720
GlyphClass: 3
Flags: W
HStem: 198 54<228.375 333> 407 20G<206 346 506 546> 407 20G<206 346 506 546>
VStem: 93 54<106 144> 333 54<44 112 134 198 252 266 288 350> 573 54<44 326>
CounterMasks: 1 1c
LayerCount: 2
Back
SplineSet
150 220 m 17
 120 310 l 1
 210 400 l 1
 360 375 l 1
 360 150 l 9
 210 0 l 1
 120 90 l 1
 120 160 l 1
 210 250 l 1
 210 250 232.928594192 225 300 225 c 3
 261.991563428 225 360 225 360 225 c 1033
580 40 m 25
 620 0 l 1049
600 20 m 1
 600 310 l 25
 510 400 l 1
 360 250 l 1049
340 40 m 25
 380 0 l 1049
360 20 m 1
 360 375 l 1041
EndSplineSet
Fore
SplineSet
276 198 m 2x9c
 275 198 l 0
 219 200 198 220 195 223 c 2
 194 223 l 1
 147 176 l 1
 147 106 l 1
 226 27 l 1
 333 134 l 1
 333 198 l 1
 276 198 l 2x9c
333 4 m 1
 313 24 l 1
 333 44 l 1
 333 112 l 1
 194 -27 l 1
 93 74 l 1
 93 144 l 1
 226 277 l 1
 226 276 l 2
 230 272 252 254 308 252 c 0
 310 252 313 252 316 252 c 2
 333 252 l 1
 333 350 l 1
 194 373 l 1
 147 326 l 1
 177 236 l 1
 134 193 l 1
 123 204 l 1
 93 294 l 1
 226 427 l 1
 376 402 l 1
 387 391 l 1
 387 288 l 1
 526 427 l 1xdc
 627 326 l 1
 627 36 l 1
 647 16 l 1
 604 -27 l 1
 584 -7 l 1
 573 4 l 1
 553 24 l 1
 573 44 l 1
 573 294 l 2
 573 338 517 350 494 373 c 1
 387 266 l 1
 387 166 l 1
 387 36 l 1
 407 16 l 1
 364 -27 l 1
 344 -7 l 1
 333 4 l 1
EndSplineSet
LCarets2: 1 360 
Ligature2: "Historic ligatures-1" a n
EndChar
StartChar: h.alt
Encoding: 62010 62010 860
Width: 480
Flags: W
HStem: 407 20G<266 306> 407 20G<266 306>
VStem: 93 54<44 266 288 581> 333 54<-74 294>
AnchorPoint: "abvmark" 240 700 basechar 0
LayerCount: 2
Back
SplineSet
100 40 m 9
 140 0 l 1041
100 625 m 9
 140 585 l 1041
120 605 m 9
 120 20 l 1041
120 250 m 9
 270 400 l 1
 360 310 l 1
 360 -90 l 17
 320 -130 l 1025
EndSplineSet
Fore
SplineSet
73 609 m 1xb0
 116 652 l 1
 136 632 l 1
 147 621 l 1
 167 601 l 1
 147 581 l 1
 147 288 l 1
 286 427 l 1
 387 326 l 1
 387 -74 l 1
 304 -157 l 1
 293 -146 l 1
 333 -106 l 1
 333 294 l 1
 254 373 l 1
 147 266 l 1
 147 36 l 1
 167 16 l 1
 124 -27 l 1
 104 -7 l 1
 93 4 l 1
 73 24 l 1
 93 44 l 1
 93 234 l 1
 93 589 l 1
 73 609 l 1xb0
EndSplineSet
EndChar
StartChar: longs_c_h
Encoding: 62714 62714 706
Width: 1020
Flags: W
HStem: -227 54<21.566 93.3405> -177 54<-102.126 -23.7456> 407 20G<476 516 806 846> 407 20G<476 516 806 846> 563 54<316.95 388.249>
VStem: 123 54<-134 514> 333 54<104 264> 633 54<44 266 288 581> 873 54<44 326>
LayerCount: 2
Back
SplineSet
-150 -200 m 17
 -150 -200 -106 -150 -60 -150 c 8
 -35 -150 33 -200 60 -200 c 24
 86 -200 150 -150 150 -150 c 1
 150 530 l 1
 270 650 l 17
 270 650 300 590 360 590 c 24
 388 590 450 650 451 650 c 1033
600 280 m 9
 480 400 l 25
 360 280 l 25
 360 120 l 25
 480 0 l 25
 600 120 l 1041
880 40 m 25
 920 0 l 1049
640 40 m 25
 680 0 l 1049
640 625 m 25
 680 585 l 1049
660 605 m 9
 660 20 l 1049
900 20 m 25
 900 310 l 25
 810 400 l 1
 660 250 l 1049
EndSplineSet
Fore
SplineSet
613 609 m 1x2f80
 656 652 l 1
 676 632 l 1
 687 621 l 1
 707 601 l 1
 687 581 l 1
 687 288 l 1
 826 427 l 1
 927 326 l 1
 927 36 l 1
 947 16 l 1
 904 -27 l 1
 884 -7 l 1
 873 4 l 1
 853 24 l 1
 873 44 l 1
 873 294 l 2
 873 338 817 350 794 373 c 1
 687 266 l 1
 687 36 l 1
 707 16 l 1
 664 -27 l 1
 644 -7 l 1
 633 4 l 1
 613 24 l 1
 633 44 l 1
 633 234 l 1
 633 589 l 1
 613 609 l 1x2f80
627 296 m 1
 584 253 l 1
 464 373 l 1
 387 296 l 1
 387 136 l 2
 387 75 464 59 496 27 c 1
 616 147 l 1
 627 136 l 1
 464 -27 l 1
 333 104 l 1
 333 264 l 1
 496 427 l 1
 627 296 l 1
-166 -227 m 1x8f80
 -177 -216 l 1
 -177 -216 -174 -213 -171 -210 c 2
 -129 -167 l 2
 -116 -154 -80 -123 -44 -123 c 0x4f80
 -19 -123 49 -173 76 -173 c 0x8f80
 88 -173 107 -163 123 -153 c 1
 123 514 l 1
 286 677 l 1
 297 666 l 1
 297 666 303 654 314 641 c 0
 329 628 350 617 376 617 c 0
 404 617 466 677 467 677 c 2
 478 666 l 1
 435 623 l 2
 434 623 372 563 344 563 c 0
 314 563 292 578 277 593 c 0
 266 604 l 2
 260 610 256 616 252 621 c 1
 177 546 l 1
 177 -134 l 1
 134 -177 l 1x4f80
 134 -177 70 -227 44 -227 c 0x8f80
 17 -227 -51 -177 -76 -177 c 0x4f80
 -108 -177 -138 -200 -154 -215 c 2
 -166 -227 l 1x8f80
EndSplineSet
LCarets2: 2 360 660 
Ligature2: "Ligatures-1" longs c h
EndChar
StartChar: s_t
Encoding: 64262 64262 334
Width: 840
Flags: W
HStem: 33 54<115.13 185.072> 323 54<342.695 573> 407 20G<236 376 763 777> 427 130G<236 376 596 627 763 777>
VStem: 573 54<67 325 380 534>
LayerCount: 2
Back
SplineSet
60 0 m 1
 60 0 108 60 150 60 c 24
 192 60 240 0 240 0 c 9
 360 120 l 1
 360 160 l 1
 120 240 l 1
 120 280 l 1
 240 400 l 17
 240 400 329.634476582 350 540 350 c 3
 709.255203672 350 750 400 750 400 c 1033
600 550 m 1
 600 50 l 1
 660 0 l 1
 780 100 l 1025
EndSplineSet
Fore
SplineSet
616 577 m 1xe8
 627 566 l 1
 627 380 l 1
 718 389 754 415 763 424 c 2
 766 427 l 1
 777 416 l 1
 777 416 777 415 776 414 c 0
 733 372 l 2
 727 366 700 343 627 331 c 1
 627 67 l 1
 676 27 l 1
 796 127 l 1
 807 116 l 1
 764 73 l 1
 644 -27 l 1
 584 23 l 1
 573 34 l 1
 573 325 l 1
 558 324 542 323 524 323 c 0
 314 323 224 373 224 373 c 1
 147 296 l 1
 147 263 l 1
 376 187 l 1
 387 176 l 1
 387 136 l 1
 224 -27 l 1
 213 -16 l 2
 213 -16 209 -10 202 -3 c 0
 184 14 158 33 134 33 c 0
 115 33 96 21 79 7 c 2
 44 -27 l 1
 33 -16 l 1
 33 -16 40 -8 50 2 c 2
 92 45 l 2
 93 46 l 0
 111 64 140 87 166 87 c 0
 193 87 221 63 239 45 c 2
 251 33 l 2
 253 31 255 29 256 28 c 2
 333 104 l 1
 333 137 l 1
 104 213 l 1
 93 224 l 1
 93 264 l 1
 256 427 l 1
 256 427 346 377 556 377 c 0
 562 377 567 377 573 377 c 1
 573 534 l 1
 616 577 l 1xe8
EndSplineSet
LCarets2: 1 480 
Ligature2: "Ligatures-1" s t
EndChar
StartChar: v.alt
Encoding: 65540 -1 782
Width: 480
Flags: W
HStem: 407 20G<96 136 316 356> 407 20G<96 136 316 356>
VStem: 93 54<136 356> 333 54<136 344>
AnchorPoint: "abvmark" 240 500 basechar 0
AnchorPoint: "blwmark" 240 0 basechar 0
LayerCount: 2
Back
SplineSet
320 400 m 1
 360 360 l 25
 360 120 l 1
 240 0 l 25
 120 120 l 1
 120 380 l 1049
140 360 m 25
 100 400 l 1049
EndSplineSet
Fore
SplineSet
293 384 m 1xb0
 336 427 l 1
 387 376 l 1
 387 136 l 1
 224 -27 l 1
 93 104 l 1
 93 364 l 1
 73 384 l 1
 116 427 l 1
 136 407 l 1
 147 396 l 1
 167 376 l 1
 147 356 l 1
 147 136 l 1
 256 27 l 1
 333 104 l 1
 333 344 l 1
 293 384 l 1xb0
EndSplineSet
EndChar
